<svg xmlns="http://www.w3.org/2000/svg" xmlns:xlink="http://www.w3.org/1999/xlink" viewBox="0 0 414 736"><defs><style>.a{clip-path:url(#b);}.b{fill:#fff;}.c{fill:#ffe772;}.d{fill:#ea3869;}.e{fill:#2496ef;}</style><clipPath id="b"><rect width="414" height="736"/></clipPath></defs><g id="a" class="a"><rect class="b" width="414" height="736"/><rect class="b" width="414" height="736"/><g transform="translate(397 -100.425)"><path class="c" d="M279.736,0C434.23,0,559.473,65.909,559.473,147.212S434.23,294.425,279.736,294.425,0,228.516,0,147.212,125.242,0,279.736,0Z" transform="translate(-767 590)"/><path class="d" d="M4635.508,462.45c-297.8-119.235-72.276-192.439-72.276-192.439s221.562-74.215,185.807,72.668S4635.508,462.45,4635.508,462.45Z" transform="matrix(0.766, 0.643, -0.643, 0.766, -3311.647, -2805.649)"/><path class="e" d="M3941.877-86.747C4062.542,313.37,4238,10.6,4238,10.6Z" transform="translate(-4517 80.18)"/></g></g></svg>