<svg xmlns="http://www.w3.org/2000/svg" xmlns:xlink="http://www.w3.org/1999/xlink" viewBox="0 0 449.78 238.47"><defs><style>.a{fill:#fff;}.b{clip-path:url(#a);}.c{fill:url(#b);}.d{fill:#ea3869;}.e{fill:#bdbdbd;}.f{fill:#e0e0e0;}.g{fill:url(#c);}.h{fill:url(#d);}.i{fill:url(#e);}.j{fill:url(#f);}.k{fill:url(#g);}.l{fill:url(#h);}.m{fill:url(#i);}</style><clipPath id="a"><rect class="a" width="449.78" height="238.47" transform="translate(140 322)"/></clipPath><linearGradient id="b" x1="0.5" y1="1.198" x2="0.5" y2="-0.168" gradientUnits="objectBoundingBox"><stop offset="0" stop-color="gray" stop-opacity="0.251"/><stop offset="0.54" stop-color="gray" stop-opacity="0.122"/><stop offset="1" stop-color="gray" stop-opacity="0.102"/></linearGradient><linearGradient id="c" x1="0.5" y1="1" x2="0.5" y2="0" xlink:href="#b"/><linearGradient id="d" x1="0.5" y1="1" x2="0.5" gradientUnits="objectBoundingBox"><stop offset="0" stop-opacity="0.122"/><stop offset="0.55" stop-opacity="0.09"/><stop offset="1" stop-opacity="0.02"/></linearGradient><linearGradient id="e" x1="0.5" y1="1.001" x2="0.5" y2="0.001" xlink:href="#d"/><linearGradient id="f" x1="0.5" y1="1" x2="0.5" y2="0" xlink:href="#d"/><linearGradient id="g" x1="0.499" y1="1" x2="0.499" y2="0.001" xlink:href="#d"/><linearGradient id="h" x1="0.499" y1="1" x2="0.499" y2="0" xlink:href="#d"/><linearGradient id="i" x1="0.5" y1="1" x2="0.5" y2="0" xlink:href="#d"/></defs><g class="b" transform="translate(-140 -322)"><g transform="translate(206.975 324.396)"><rect class="c" width="253.222" height="154.654" rx="9.557" transform="matrix(0.955, -0.297, 0.297, 0.955, -2.404, 72.738)"/><rect class="a" width="248.058" height="149.18" rx="9.557" transform="matrix(0.955, -0.297, 0.297, 0.955, 1.372, 73.248)"/><rect class="d" width="248.058" height="21.394" transform="matrix(0.955, -0.297, 0.297, 0.955, 7.202, 92.023)"/><rect class="e" width="63.026" height="9.251" transform="matrix(0.955, -0.297, 0.297, 0.955, 56.174, 183.377)"/><rect class="f" width="109.283" height="9.251" transform="matrix(0.955, -0.297, 0.297, 0.955, 51.54, 168.466)"/><rect class="g" width="254.65" height="154.806" rx="9.557" transform="translate(63.585 81.268)"/><rect class="a" width="248.057" height="149.18" rx="9.557" transform="translate(66.477 82.846)"/><rect class="f" width="7.229" height="20.525" transform="translate(85.845 106.263)"/><rect class="f" width="7.229" height="20.525" transform="translate(95.096 106.263)"/><rect class="f" width="7.229" height="20.525" transform="translate(104.348 106.263)"/><rect class="f" width="7.229" height="20.525" transform="translate(120.539 106.263)"/><rect class="f" width="7.229" height="20.525" transform="translate(129.791 106.263)"/><rect class="f" width="7.229" height="20.525" transform="translate(139.042 106.263)"/><rect class="f" width="7.229" height="20.525" transform="translate(155.23 106.263)"/><rect class="f" width="7.229" height="20.525" transform="translate(164.485 106.263)"/><rect class="f" width="7.229" height="20.525" transform="translate(173.737 106.263)"/><rect class="f" width="7.229" height="20.525" transform="translate(189.925 106.263)"/><rect class="f" width="7.229" height="20.525" transform="translate(199.176 106.263)"/><rect class="f" width="7.229" height="20.525" transform="translate(208.428 106.263)"/><rect class="e" width="63.026" height="9.251" transform="translate(85.845 209.762)"/><rect class="f" width="109.283" height="9.251" transform="translate(85.845 194.151)"/><path class="h" d="M314.954,197.473a1.522,1.522,0,0,1,1.467-1.574H318.6V182.873H299.173v14.979h15.778Z" transform="translate(-49.406 -38.354)"/><path class="i" d="M316.421,211.531a1.522,1.522,0,0,1-1.467-1.574v-.393H299.176v14.979H318.6V211.531Z" transform="translate(-49.406 -38.354)"/><rect class="j" width="15.778" height="7.816" transform="translate(249.771 161.451)"/><path class="k" d="M324.056,209.957a1.522,1.522,0,0,1-1.467,1.574h-2.162v13.026h19.42V209.564H324.07Z" transform="translate(-49.406 -38.354)"/><path class="l" d="M320.428,182.873V195.9H322.6a1.522,1.522,0,0,1,1.467,1.574v.379h15.778V182.873Z" transform="translate(-49.406 -38.354)"/><rect class="m" width="15.778" height="7.816" transform="translate(274.651 161.451)"/><path class="d" d="M315.021,197.619a1.39,1.39,0,0,1,1.39-1.39H318.5V184.66H299.972v13.3h15.052Z" transform="translate(-49.406 -38.354)"/><path class="d" d="M316.418,210.1a1.39,1.39,0,0,1-1.39-1.39v-.348H299.969v13.3h18.524V210.1Z" transform="translate(-49.406 -38.354)"/><rect class="d" width="15.052" height="6.94" transform="translate(250.563 161.337)"/><path class="d" d="M323.7,208.7a1.39,1.39,0,0,1-1.39,1.39h-2.085v11.566H338.75V208.365H323.7Z" transform="translate(-49.406 -38.354)"/><path class="d" d="M320.23,184.66v11.566h2.085a1.39,1.39,0,0,1,1.39,1.39v.348h15.052v-13.3Z" transform="translate(-49.406 -38.354)"/><rect class="d" width="15.052" height="6.94" transform="translate(274.3 161.337)"/></g></g></svg>