<svg xmlns="http://www.w3.org/2000/svg" xmlns:xlink="http://www.w3.org/1999/xlink" viewBox="0 0 400.534 293.843"><defs><style>.a,.h{fill:#23eaae;}.a{opacity:0.2;}.b{fill:none;stroke:#535461;stroke-miterlimit:10;stroke-width:0.822px;}.c{fill:#8ed16f;}.d,.n,.p,.t{fill:#32213a;}.d,.e{opacity:0.3;}.f,.s{fill:#fff;}.g{fill:url(#a);}.i{fill:#d6d6e3;}.j{fill:url(#b);}.k{fill:#aca9c9;}.l{fill:#618fd8;}.m,.p{opacity:0.1;}.o{fill:#f7c4a7;}.q{fill:#e14b5a;}.r{fill:#281c1c;}.s{opacity:0.4;}.t{opacity:0.05;}</style><linearGradient id="a" x1="0.5" y1="1" x2="0.5" gradientUnits="objectBoundingBox"><stop offset="0" stop-color="gray" stop-opacity="0.251"/><stop offset="0.54" stop-color="gray" stop-opacity="0.122"/><stop offset="1" stop-color="gray" stop-opacity="0.102"/></linearGradient><linearGradient id="b" x1="9.926" x2="9.926" y2="0" xlink:href="#a"/></defs><g transform="translate(0 0)"><path class="a" d="M99.476,187c-5.268,1.591-10.2,5.445-11.514,10.791-1.505,6.144,1.966,12.337,2.467,18.645,1.62,20.668-27.783,35.25-23.588,55.553,1.665,8.072,8.4,14.01,15.03,18.916,10.626,7.834,22.416,14.755,35.472,16.708,19.817,2.969,40.522-5.757,59.784-.243,15.536,4.449,27.425,17.489,42.854,22.3,11.745,3.664,24.4,2.221,36.6.736,6.58-.8,13.472-1.719,18.781-5.667,9.869-7.349,10.49-21.861,17.1-32.261,10.207-16.038,32.586-19.188,51.35-16.071s36.986,10.791,56,10.166c4.063-.136,8.225-.687,11.769-2.681,4.31-2.422,7.221-6.691,9.8-10.914a176.6,176.6,0,0,0,25.607-87.752c.111-5.325-.078-10.881-2.583-15.581-3.166-5.946-9.5-9.5-15.8-11.9-15.129-5.757-31.841-6.7-46.666-13.192-14.3-6.263-25.878-17.247-38.33-26.66a204.17,204.17,0,0,0-84.092-37.45c-7.151-1.382-14.574-2.369-21.68-.773-8.188,1.838-15.244,6.942-21.589,12.436-16.881,14.615-30.41,32.647-45.967,48.665a261.7,261.7,0,0,1-34.921,30.114c-5.757,4.149-11.876,9.076-18.291,12.144C111.192,185.838,105.685,185.13,99.476,187Z" transform="translate(-46.469 -38.137)"/><path class="b" d="M174.722,57.111S158.828,78.22,170.2,102.823s-19.817,64.135-19.817,64.135" transform="translate(-46.469 -38.137)"/><path class="c" d="M181.849,49.212c-1.262,5.432-7.3,8.669-7.3,8.669s-3.989-5.572-2.726-11,4.523-9.314,7.3-8.669S183.111,43.779,181.849,49.212Z" transform="translate(-46.469 -38.137)"/><ellipse class="c" cx="3.171" cy="1.188" rx="3.171" ry="1.188" transform="translate(128.289 12.676) rotate(-76.9)"/><ellipse class="d" cx="3.171" cy="1.188" rx="3.171" ry="1.188" transform="translate(128.289 12.676) rotate(-76.9)"/><path class="c" d="M179.1,73.346c-5.247,1.892-11.247-1.423-11.247-1.423s2.508-6.378,7.76-8.266,10.281-1.234,11.247,1.423S184.349,71.455,179.1,73.346Z" transform="translate(-46.469 -38.137)"/><ellipse class="c" cx="3.169" cy="1.188" rx="3.169" ry="1.188" transform="matrix(0.94, -0.34, 0.34, 0.94, 127.371, 29.865)"/><ellipse class="d" cx="3.169" cy="1.188" rx="3.169" ry="1.188" transform="matrix(0.94, -0.34, 0.34, 0.94, 127.371, 29.865)"/><path class="c" d="M177.88,92.58c-5.247,1.892-11.247-1.423-11.247-1.423s2.508-6.378,7.76-8.266,10.281-1.234,11.247,1.423S183.128,90.692,177.88,92.58Z" transform="translate(-46.469 -38.137)"/><ellipse class="c" cx="3.171" cy="1.188" rx="3.171" ry="1.188" transform="translate(126.211 49.382) rotate(-19.8)"/><ellipse class="d" cx="3.171" cy="1.188" rx="3.171" ry="1.188" transform="translate(126.211 49.382) rotate(-19.8)"/><path class="c" d="M184.012,115.144c-5.247,1.892-11.247-1.423-11.247-1.423s2.508-6.378,7.76-8.266,10.281-1.234,11.247,1.423S189.259,113.264,184.012,115.144Z" transform="translate(-46.469 -38.137)"/><ellipse class="c" cx="3.171" cy="1.188" rx="3.171" ry="1.188" transform="translate(132.343 71.956) rotate(-19.8)"/><ellipse class="d" cx="3.171" cy="1.188" rx="3.171" ry="1.188" transform="translate(132.343 71.956) rotate(-19.8)"/><path class="c" d="M180.023,135.779c-5.247,1.892-11.247-1.423-11.247-1.423s2.508-6.378,7.76-8.266,10.281-1.234,11.247,1.423S185.274,133.891,180.023,135.779Z" transform="translate(-46.469 -38.137)"/><ellipse class="c" cx="3.169" cy="1.188" rx="3.169" ry="1.188" transform="matrix(0.94, -0.34, 0.34, 0.94, 128.365, 92.247)"/><ellipse class="d" cx="3.169" cy="1.188" rx="3.169" ry="1.188" transform="matrix(0.94, -0.34, 0.34, 0.94, 128.365, 92.247)"/><path class="c" d="M155.411,78.812c3.874,4.014,10.721,3.7,10.721,3.7s.563-6.83-3.31-10.844S154.148,66,152.1,67.968,151.537,74.8,155.411,78.812Z" transform="translate(-46.469 -38.137)"/><ellipse class="c" cx="1.188" cy="3.171" rx="1.188" ry="3.171" transform="translate(109.737 35.514) rotate(-43.99)"/><ellipse class="d" cx="1.188" cy="3.171" rx="1.188" ry="3.171" transform="translate(109.737 35.514) rotate(-43.99)"/><path class="c" d="M153.186,142.548c3.874,4.014,10.721,3.7,10.721,3.7s.563-6.83-3.31-10.844-8.673-5.667-10.721-3.7S149.312,138.534,153.186,142.548Z" transform="translate(-46.469 -38.137)"/><ellipse class="c" cx="1.188" cy="3.171" rx="1.188" ry="3.171" transform="translate(107.507 99.255) rotate(-43.99)"/><ellipse class="d" cx="1.188" cy="3.171" rx="1.188" ry="3.171" transform="translate(107.507 99.255) rotate(-43.99)"/><path class="c" d="M158.322,101.339c4.992,2.492,11.338-.1,11.338-.1s-1.748-6.625-6.736-9.117-10.067-2.467-11.338.1S153.33,98.847,158.322,101.339Z" transform="translate(-46.469 -38.137)"/><ellipse class="c" cx="1.188" cy="3.171" rx="1.188" ry="3.171" transform="translate(110.867 58.059) rotate(-63.48)"/><ellipse class="d" cx="1.188" cy="3.171" rx="1.188" ry="3.171" transform="translate(110.867 58.059) rotate(-63.48)"/><path class="c" d="M160.416,123.779c4.992,2.492,11.338-.1,11.338-.1s-1.748-6.625-6.736-9.117-10.067-2.467-11.338.1S155.444,121.312,160.416,123.779Z" transform="translate(-46.469 -38.137)"/><ellipse class="c" cx="1.188" cy="3.171" rx="1.188" ry="3.171" transform="translate(112.962 80.502) rotate(-63.48)"/><ellipse class="d" cx="1.188" cy="3.171" rx="1.188" ry="3.171" transform="translate(112.962 80.502) rotate(-63.48)"/><path class="c" d="M98.172,102.482s29.029,29.029,12.641,72.1S138.9,289.294,138.9,289.294s-.477-.07-1.361-.226C77.915,278.545,48.307,210.355,81.452,159.7,93.76,140.866,103.9,118.775,98.172,102.482Z" transform="translate(-46.469 -38.137)"/><path class="c" d="M46.469,219.891s33.124-5.276,36.143,24.41,63.695,33.8,63.695,33.8-.411.271-1.139.757c-50.1,32.9-97.991,20.948-90.774-22.72C57.082,239.9,56.86,223.6,46.469,219.891Z" transform="translate(-46.469 -38.137)"/><g class="e"><path class="f" d="M46.469,219.891s33.124-5.276,36.143,24.41,63.695,33.8,63.695,33.8-.411.271-1.139.757c-50.1,32.9-97.991,20.948-90.774-22.72C57.082,239.9,56.86,223.6,46.469,219.891Z" transform="translate(-46.469 -38.137)"/></g><ellipse class="c" cx="9.109" cy="23.765" rx="9.109" ry="23.765" transform="translate(34.21 133.859)"/><ellipse class="d" cx="9.109" cy="23.765" rx="9.109" ry="23.765" transform="translate(34.21 133.859)"/><ellipse class="c" cx="6.14" cy="13.665" rx="6.14" ry="13.665" transform="translate(18.821 228.949) rotate(-45)"/><ellipse class="d" cx="6.14" cy="13.665" rx="6.14" ry="13.665" transform="translate(18.821 228.949) rotate(-45)"/><path class="g" d="M344.152,147.3H128.529a9.824,9.824,0,0,0-9.824,9.824V283.508a9.824,9.824,0,0,0,9.824,9.824H344.152a9.824,9.824,0,0,0,9.824-9.824V157.126a9.824,9.824,0,0,0-9.824-9.824Z" transform="translate(-46.469 -38.137)"/><rect class="h" width="229.732" height="142.593" rx="10.203" transform="translate(75.004 110.883)"/><rect class="h" width="229.732" height="26.142" transform="translate(75.004 135.837)"/><rect class="d" width="229.732" height="26.142" transform="translate(75.004 135.837)"/><rect class="i" width="186.163" height="12.674" transform="translate(96.791 181.388)"/><circle class="h" cx="18.221" cy="18.221" r="18.221" transform="translate(94.015 207.53)"/><circle class="d" cx="18.221" cy="18.221" r="18.221" transform="translate(94.015 207.53)"/><path class="j" d="M338.144,113.861a3.989,3.989,0,0,0,1.756,2.221c3.779,2.5,12,1.966,12.982,1.966.21,0,.485.374.79,1a69.425,69.425,0,0,1,3.853,13.743c.2,2.389,2.422,13.57,6.057,17.736.111.127.222.247.329.358,3.565,3.582,7.748-.358,7.748-.358l.6-2.085c-.169.822-.358,1.781-.547,2.854-.095.539-.189,1.11-.28,1.7a65.084,65.084,0,0,0-.851,10.022,36.352,36.352,0,0,0,.156,3.652c.033.337.07.67.115,1a34.872,34.872,0,0,1,.271,4.458,121.175,121.175,0,0,1-2.291,19.858l.086-.029c-.053.276-.086.411-.086.411l.132-.041q-.095.613-.181,1.254c-.765,5.552-1.2,12.46-1.415,16.449a32.938,32.938,0,0,0,.28,6.3l4.014,28.255v13.159a23.235,23.235,0,0,0,.724,5.913c1.308,4.972.23,22.326-.374,30.558-.169,2.245-.3,3.816-.337,4.269v.136l.115-.045v.144a2.325,2.325,0,0,1,.535-.156c-1.591,2.467-4.474,6.547-6.691,7.233a7.02,7.02,0,0,0-3.343,2.217l-.058.078-.082.115a2.468,2.468,0,0,0-.481,1.258,1.39,1.39,0,0,1-.074-.243c-.169.917.382,1.756,2.114,2.163a14.228,14.228,0,0,0,3.064.247c6,0,16.659-1.846,17.835-3.833v-6.851l.193.062v.062l.736.243,2.019-6.777c2.422-1.793.411-33.881,0-41.254-.37-6.719,3.787-33.449,4.523-38.158l-.1-.119.111-.687a2.918,2.918,0,0,1,.411.362,5.374,5.374,0,0,1,.629.929,12.429,12.429,0,0,1,.892,1.842c4.063,10.133,5.893,39.108,5.893,41.707V286.4a28.374,28.374,0,0,0,1.11,7.949,34.091,34.091,0,0,1,.864,4.137c.086.547.16,1.09.23,1.608s.14,1.11.193,1.6a3.32,3.32,0,0,0,.041.366.721.721,0,0,1,0,.169c.111,1.073.169,1.777.169,1.777a.411.411,0,0,1,.082-.16l.021.259a.555.555,0,0,1,.16-.255,3.891,3.891,0,0,1,.543-.444v3.463l-.1-.074v.6c4.186,3.158,11,4.112,16.231,4.075,3.393,0,6.14-.411,7.094-.888,1.365-.67.617-2.233-.625-3.43a4.691,4.691,0,0,0-3.01-1.554c-1.324.144-5.852-4.984-8.225-7.793l.267-.119.378-.165V252.082s.609-17.938,2.422-35.678a63.116,63.116,0,0,0-3.1-26.467l-.058-.169.551.086c.584.09.9.144.9.144a3.417,3.417,0,0,0-.037-.411h.037s-.707-7.694-.716-17.358c0-10.955.925-24.312,4.754-31.87,2.2-4.351,2.94-7.813,2.879-10.544a11.029,11.029,0,0,0-1.97-6.744,5.346,5.346,0,0,0-2.266-1.793l-.078-.045h-.041a5.634,5.634,0,0,0-2.081-.411h-8.27a5.523,5.523,0,0,1-2.731-.72l-3.236-1.834a16.414,16.414,0,0,1-1-8.015c0-.218.041-.436.062-.65l.234-.247c.181-.193.35-.411.514-.6a4.584,4.584,0,0,1-.037.485c-.041.259-.111.411-.222.444,1.768-.23,3.742-.58,4.828-1.945.045-.053.086-.111.127-.169a8.814,8.814,0,0,0,.794-1.645,4.776,4.776,0,0,1,.6-1.1c.271-.354.625-.642.917-.979l.049-.058c1.04-1.234,1.1-3,1.11-4.614.021-3.915-.095-8.225-2.714-11.161-2.175-2.443-5.646-3.368-8.94-3.475s-6.58.485-9.869.5c-2.237,0-4.935-.037-6.168,1.814-.6.909-.679,2.1-1.336,2.969-.378.5-.958.933-.991,1.559a1.6,1.6,0,0,0,.214.822v.029a5.818,5.818,0,0,0,4.26,2.858,10.612,10.612,0,0,0-.822,1.135,10.807,10.807,0,0,0-1.645,5.757,6.741,6.741,0,0,0,.025.707,10.869,10.869,0,0,0,3.446,7.242c-.033.23-.066.461-.1.687l.074.066q.35.317.728.6l.09.07v.411a6.9,6.9,0,0,1-.025.716c-.025.234,0,.378-.025.567l-.053-.045-4.018-3.356-6.46-5.979s-16.153-11.757-16.963-6.168a4.026,4.026,0,0,0,.769,2.788c2.965,4.523,13.159,8.373,13.159,8.373a86.158,86.158,0,0,1,10.145,13.357c-.144.078-.288.152-.44.222-3.619,1.682-8.9.97-8.9.97-6.1.95-6.65,7.632-6.617,10.334v.559l-8.093-19-.025-.058a4,4,0,0,0-3.027-2.377C350.538,111.763,337.013,109.868,338.144,113.861ZM372.025,298.5a3.515,3.515,0,0,1,.358-.066l-.037.058Z" transform="translate(-46.469 -38.137)"/><path class="k" d="M412.461,294.615s7.665,9.635,9.438,9.438,5.9,3.734,3.541,4.935-15.923,1.966-22.617-3.146v-7.7Z" transform="translate(-46.469 -38.137)"/><path class="k" d="M373.727,295.2s-4.523,8.06-7.665,9.047-5.9,4.523-1.768,5.506,18.875-1.18,20.249-3.541V295.792Z" transform="translate(-46.469 -38.137)"/><path class="l" d="M368.048,216.022l3.907,27.873v12.958a23.225,23.225,0,0,0,.707,5.831c1.275,4.906.226,22.021-.366,30.143-.193,2.648-.341,4.343-.341,4.343,2.554-1.18,13.369,2.554,13.369,2.554L386.418,296l.872-2.961c2.36-1.768.411-33.42,0-40.711-.267-4.98,1.953-21.125,3.376-30.8.411-2.735.744-4.935.946-6.259.127-.822.2-1.279.2-1.279a4.306,4.306,0,0,1,1.061,1.279,12.308,12.308,0,0,1,.868,1.818c3.956,10,5.757,38.577,5.757,41.123v26.878a28.344,28.344,0,0,0,1.082,7.842,41.122,41.122,0,0,1,1.065,5.663c.28,2.134.411,3.853.411,3.853.2-1.18,12.386-6.489,12.386-6.489V251.132s.588-17.683,2.36-35.193a62.785,62.785,0,0,0-2.262-23.678c-.489-1.674-.979-3.092-1.4-4.215-.72-1.912-1.234-2.969-1.234-2.969H371.749c-.674.127-1.234,1.485-1.739,3.545-.329,1.382-.617,3.076-.868,4.935-.744,5.473-1.172,12.287-1.378,16.227A32.842,32.842,0,0,0,368.048,216.022Z" transform="translate(-46.469 -38.137)"/><g class="m"><path class="n" d="M413.731,296.083V251.26s.588-17.683,2.36-35.193a61.308,61.308,0,0,0-4.935-30.867h.785a61.665,61.665,0,0,1,4.935,30.867c-1.748,17.5-2.36,35.193-2.36,35.193v44.824s-12.189,5.309-12.386,6.489a5.886,5.886,0,0,0-.062-.716C404.726,300.011,413.731,296.083,413.731,296.083Z" transform="translate(-46.469 -38.137)"/><path class="n" d="M373.135,297.046a3.052,3.052,0,0,0-1.082.222v-.2a7.016,7.016,0,0,1,1.082-.025Z" transform="translate(-46.469 -38.137)"/><path class="n" d="M386.6,293.139c2.36-1.768.411-33.42,0-40.711s4.523-38.335,4.523-38.335a3.429,3.429,0,0,1,.679.7c-.724,4.639-4.77,31.011-4.412,37.636.411,7.275,2.36,38.927,0,40.711l-1.966,6.682-.716-.239Z" transform="translate(-46.469 -38.137)"/></g><path class="o" d="M376.084,136.548,371.971,151.1s-4.326,4.112-7.863,0-5.716-15.137-5.93-17.5-3.343-14.549-4.523-14.549-12.974.785-14.352-4.112c-1.1-3.94,12.065-2.056,17.337-1.172a3.907,3.907,0,0,1,2.948,2.344l8.085,19.307S371.955,130.454,376.084,136.548Z" transform="translate(-46.469 -38.137)"/><path class="o" d="M402.624,102.733S397.513,117.085,404,122.2s-23.206,6.489-23.206,6.489l4.03-3.833s2.85-11.3.884-20.742Z" transform="translate(-46.469 -38.137)"/><path class="p" d="M396.332,122.2s5.21-1.279,5.21-2.652l4.618,2.652h11.6s8.455,4.717,1.378,18.875-3.931,48.936-3.931,48.936-25.163-4.523-46,2.36c0,0,3.146-15.532,1.966-24.378s1.966-21.232,1.966-21.232l1.768-7.472s-.1-6.991-7.373-3.442c0,0-1.082-10.124,6.39-11.3,0,0,8.636,1.18,11.206-3.146C385.126,121.411,390.83,124.754,396.332,122.2Z" transform="translate(-46.469 -38.137)"/><path class="q" d="M396.332,121.805s5.21-1.279,5.21-2.652l3.384,1.945a5.346,5.346,0,0,0,2.657.707H415.7a5.346,5.346,0,0,1,4.347,2.212c1.863,2.62,3.532,7.785-.9,16.663-7.077,14.154-3.931,48.936-3.931,48.936s-25.163-4.523-46,2.36c0,0,3.146-15.532,1.966-24.378s1.966-21.2,1.966-21.2l1.768-7.472s-.1-6.991-7.373-3.442c0,0-1.053-9.845,6.082-11.251a2.015,2.015,0,0,1,.6-.041c1.526.16,8.636.674,10.914-3.179C385.126,121.016,390.83,124.359,396.332,121.805Z" transform="translate(-46.469 -38.137)"/><path class="p" d="M416.191,139.694s-6.292,3.931-16.515,0c0,0-11.206-4.112-14.747-12.189s17.888,1.378,17.888,1.378,4.523,0,5.9-.983S419.727,135.368,416.191,139.694Z" transform="translate(-46.469 -38.137)"/><path class="o" d="M416.191,138.908s-6.292,3.931-16.515,0c0,0-11.206-4.112-14.747-12.189S373.135,109.8,373.135,109.8s-14.352-5.506-13.57-11.009,16.515,6.094,16.515,6.094l6.292,5.9,20.446,17.3s4.523,0,5.9-.983S419.727,134.582,416.191,138.908Z" transform="translate(-46.469 -38.137)"/><path class="p" d="M385.521,104.7l16.906-1.378a38.807,38.807,0,0,0-1.764,8.007,10.8,10.8,0,0,1-15.133.411,19.216,19.216,0,0,0-.008-7.04Z" transform="translate(-46.469 -38.137)"/><circle class="o" cx="10.811" cy="10.811" r="10.811" transform="translate(335.812 54.278)"/><path class="p" d="M399.026,105.574c-.633-1.045.654-2.406.23-3.549-.391-1.053-1.945-1.234-2.467-2.217-.411-.794,0-1.768-.165-2.644a2.716,2.716,0,0,0-2.607-1.892,9.3,9.3,0,0,0-3.368.744,12.931,12.931,0,0,1-5.547.855,5.817,5.817,0,0,1-4.581-2.907,1.645,1.645,0,0,1-.21-.8c.033-.617.6-1.04.966-1.534.642-.859.716-2.031,1.3-2.928,1.193-1.826,3.812-1.781,5.992-1.789,3.208,0,6.4-.6,9.606-.493s6.58,1.016,8.706,3.426c2.55,2.9,2.665,7.143,2.644,11.009,0,1.591-.066,3.323-1.082,4.552-.3.358-.658.654-.942,1.02-.617.822-.781,1.875-1.361,2.71-1.028,1.485-3.035,1.846-4.824,2.085.526-.07.09-3.594,0-3.919C400.971,105.685,400.6,105.718,399.026,105.574Z" transform="translate(-46.469 -38.137)"/><path class="r" d="M399.026,105.184c-.633-1.045.654-2.406.23-3.549-.391-1.053-1.945-1.234-2.467-2.217-.411-.794,0-1.768-.165-2.644a2.716,2.716,0,0,0-2.607-1.892,9.3,9.3,0,0,0-3.368.744,12.931,12.931,0,0,1-5.547.855,5.817,5.817,0,0,1-4.581-2.907,1.645,1.645,0,0,1-.21-.8c.033-.617.6-1.04.966-1.534.642-.859.716-2.031,1.3-2.928,1.193-1.826,3.812-1.781,5.992-1.789,3.208,0,6.4-.6,9.606-.493s6.58,1.016,8.706,3.426c2.55,2.9,2.665,7.143,2.644,11.009,0,1.591-.066,3.323-1.082,4.552-.3.358-.658.654-.942,1.02-.617.822-.781,1.875-1.361,2.71-1.028,1.485-3.035,1.846-4.824,2.085.526-.07.09-3.594,0-3.919C400.971,105.274,400.6,105.323,399.026,105.184Z" transform="translate(-46.469 -38.137)"/><path class="p" d="M416.092,140.187s-5.309-13.764-9.438-14.154,7.863,0,7.863,0l3.931,7.077Z" transform="translate(-46.469 -38.137)"/><path class="q" d="M416.487,140.187s-5.309-13.764-9.438-14.154,7.863,0,7.863,0l3.931,7.077Z" transform="translate(-46.469 -38.137)"/><path class="l" d="M401.625,298.625c.28,2.134.411,3.853.411,3.853.2-1.18,12.386-6.489,12.386-6.489v-3.2a5.42,5.42,0,0,0-.929.045,17.538,17.538,0,0,0-6.58,2.689,60.016,60.016,0,0,1-5.288,3.1Z" transform="translate(-46.469 -38.137)"/><path class="d" d="M401.625,298.625c.28,2.134.411,3.853.411,3.853.2-1.18,12.386-6.489,12.386-6.489v-3.2a5.42,5.42,0,0,0-.929.045,17.538,17.538,0,0,0-6.58,2.689,60.016,60.016,0,0,1-5.288,3.1Z" transform="translate(-46.469 -38.137)"/><path class="l" d="M371.955,297.169c2.554-1.18,13.369,2.554,13.369,2.554L386.418,296c-1.888-.382-3.763-.859-5.605-1.427a18.643,18.643,0,0,1-2.517-.929,16.868,16.868,0,0,0-1.678-.781,8.7,8.7,0,0,0-4.326-.037C372.1,295.475,371.955,297.169,371.955,297.169Z" transform="translate(-46.469 -38.137)"/><path class="d" d="M371.955,297.169c2.554-1.18,13.369,2.554,13.369,2.554L386.418,296c-1.888-.382-3.763-.859-5.605-1.427a18.643,18.643,0,0,1-2.517-.929,16.868,16.868,0,0,0-1.678-.781,8.7,8.7,0,0,0-4.326-.037C372.1,295.475,371.955,297.169,371.955,297.169Z" transform="translate(-46.469 -38.137)"/><path class="s" d="M425.332,308.375a1.176,1.176,0,0,0,.674-.781,1.155,1.155,0,0,1-.674,1.369c-2.36,1.18-15.923,1.966-22.617-3.146v-.588C409.409,310.341,422.972,309.555,425.332,308.375Z" transform="translate(-46.469 -38.137)"/><path class="s" d="M364.191,309.161c4.112.983,18.875-1.18,20.249-3.541v.588c-1.378,2.36-16.12,4.523-20.249,3.541-1.686-.411-2.225-1.234-2.056-2.134C362.266,308.28,362.883,308.832,364.191,309.161Z" transform="translate(-46.469 -38.137)"/><path class="p" d="M388.174,165.942s-4.326-1.378-5.506,0-11.268,4.606-11.268,4.606" transform="translate(-46.469 -38.137)"/><rect class="c" width="21.034" height="0.444" transform="translate(313.791 73.786) rotate(180)"/><rect class="c" width="21.034" height="0.444" transform="translate(313.791 74.231) rotate(180)"/><rect class="p" width="21.034" height="0.444" transform="translate(313.791 74.231) rotate(180)"/><rect class="c" width="21.034" height="0.444" transform="translate(313.791 74.675) rotate(180)"/><rect class="c" width="21.034" height="0.444" transform="translate(313.791 75.115) rotate(180)"/><rect class="p" width="21.034" height="0.444" transform="translate(313.791 75.115) rotate(180)"/><rect class="c" width="21.034" height="0.444" transform="translate(313.791 75.559) rotate(180)"/><rect class="c" width="21.034" height="0.444" transform="translate(313.791 75.999) rotate(180)"/><rect class="p" width="21.034" height="0.444" transform="translate(313.791 75.999) rotate(180)"/><rect class="c" width="21.034" height="0.444" transform="translate(313.791 76.443) rotate(180)"/><rect class="c" width="21.034" height="0.444" transform="translate(313.791 76.883) rotate(180)"/><rect class="p" width="21.034" height="0.444" transform="translate(313.791 76.883) rotate(180)"/><rect class="c" width="21.034" height="0.444" transform="translate(313.791 70.25) rotate(180)"/><rect class="c" width="21.034" height="0.444" transform="translate(323.808 73.185) rotate(-140.25)"/><rect class="c" width="21.034" height="0.444" transform="translate(309.063 66.109) rotate(-140.25)"/><rect class="c" width="21.034" height="0.444" transform="translate(313.791 70.69) rotate(180)"/><rect class="p" width="21.034" height="0.444" transform="translate(313.791 70.69) rotate(180)"/><rect class="c" width="21.034" height="0.444" transform="translate(313.791 71.138) rotate(180)"/><rect class="c" width="21.034" height="0.444" transform="translate(313.791 71.578) rotate(180)"/><rect class="p" width="21.034" height="0.444" transform="translate(313.791 71.578) rotate(180)"/><rect class="c" width="21.034" height="0.444" transform="translate(313.791 72.018) rotate(180)"/><rect class="c" width="21.034" height="0.444" transform="translate(313.791 72.462) rotate(180)"/><rect class="p" width="21.034" height="0.444" transform="translate(313.791 72.462) rotate(180)"/><rect class="c" width="21.034" height="0.444" transform="translate(313.791 72.902) rotate(180)"/><rect class="c" width="21.034" height="0.444" transform="translate(313.791 73.346) rotate(180)"/><rect class="p" width="21.034" height="0.444" transform="translate(313.791 73.346) rotate(180)"/><rect class="c" width="7.665" height="14.94" transform="translate(297.627 91.99) rotate(-169.48)"/><ellipse class="c" cx="3.146" cy="1.571" rx="3.146" ry="1.571" transform="translate(293.209 86.799) rotate(-79.48)"/><ellipse class="p" cx="3.146" cy="1.571" rx="3.146" ry="1.571" transform="translate(293.209 86.799) rotate(-79.48)"/><rect class="c" width="7.665" height="14.94" transform="translate(298.917 122.994) rotate(-169.48)"/><ellipse class="c" cx="3.146" cy="1.571" rx="3.146" ry="1.571" transform="translate(294.494 117.8) rotate(-79.48)"/><ellipse class="p" cx="3.146" cy="1.571" rx="3.146" ry="1.571" transform="translate(294.494 117.8) rotate(-79.48)"/><rect class="c" width="7.665" height="14.94" transform="translate(260.473 52.13) rotate(-61.58)"/><ellipse class="c" cx="1.575" cy="3.153" rx="1.575" ry="3.153" transform="translate(266.624 52.475) rotate(-61.39)"/><ellipse class="p" cx="1.575" cy="3.153" rx="1.575" ry="3.153" transform="translate(266.624 52.475) rotate(-61.39)"/><rect class="c" width="7.665" height="14.94" transform="translate(231.622 185.171) rotate(-61.58)"/><ellipse class="c" cx="1.571" cy="3.146" rx="1.571" ry="3.146" transform="translate(236.459 185.33) rotate(-61.58)"/><ellipse class="p" cx="1.571" cy="3.146" rx="1.571" ry="3.146" transform="translate(236.459 185.33) rotate(-61.58)"/><rect class="c" width="7.665" height="14.94" transform="translate(213.97 75.381) rotate(-61.58)"/><ellipse class="c" cx="1.571" cy="3.146" rx="1.571" ry="3.146" transform="translate(218.803 75.533) rotate(-61.58)"/><ellipse class="p" cx="1.571" cy="3.146" rx="1.571" ry="3.146" transform="translate(218.803 75.533) rotate(-61.58)"/><rect class="c" width="7.665" height="14.94" transform="translate(236.094 52.128) rotate(-61.58)"/><ellipse class="c" cx="1.571" cy="3.146" rx="1.571" ry="3.146" transform="translate(240.927 52.281) rotate(-61.58)"/><ellipse class="p" cx="1.571" cy="3.146" rx="1.571" ry="3.146" transform="translate(240.927 52.281) rotate(-61.58)"/><rect class="c" width="7.665" height="14.94" transform="matrix(0.994, -0.109, 0.109, 0.994, 254.212, 73.657)"/><ellipse class="c" cx="1.571" cy="3.146" rx="1.571" ry="3.146" transform="matrix(0.994, -0.109, 0.109, 0.994, 256.83, 77.723)"/><ellipse class="p" cx="1.571" cy="3.146" rx="1.571" ry="3.146" transform="matrix(0.994, -0.109, 0.109, 0.994, 256.83, 77.723)"/><rect class="c" width="7.665" height="14.94" transform="matrix(0.994, -0.109, 0.109, 0.994, 306.455, 154.981)"/><ellipse class="c" cx="1.571" cy="3.146" rx="1.571" ry="3.146" transform="matrix(0.994, -0.109, 0.109, 0.994, 309.076, 159.047)"/><ellipse class="p" cx="1.571" cy="3.146" rx="1.571" ry="3.146" transform="matrix(0.994, -0.109, 0.109, 0.994, 309.076, 159.047)"/><rect class="c" width="7.665" height="14.94" transform="translate(228.345 111.113) rotate(-61.58)"/><ellipse class="c" cx="1.571" cy="3.146" rx="1.571" ry="3.146" transform="translate(233.176 111.271) rotate(-61.58)"/><ellipse class="p" cx="1.571" cy="3.146" rx="1.571" ry="3.146" transform="translate(233.176 111.271) rotate(-61.58)"/><rect class="c" width="7.665" height="14.94" transform="translate(195.188 101.643) rotate(-61.58)"/><ellipse class="c" cx="1.575" cy="3.153" rx="1.575" ry="3.153" transform="translate(201.104 102.224) rotate(-61.39)"/><ellipse class="p" cx="1.575" cy="3.153" rx="1.575" ry="3.153" transform="translate(201.104 102.224) rotate(-61.39)"/><rect class="c" width="7.665" height="14.94" transform="translate(184.569 261.078) rotate(-61.58)"/><ellipse class="c" cx="1.571" cy="3.146" rx="1.571" ry="3.146" transform="translate(189.401 261.233) rotate(-61.58)"/><ellipse class="p" cx="1.571" cy="3.146" rx="1.571" ry="3.146" transform="translate(189.401 261.233) rotate(-61.58)"/><rect class="c" width="7.665" height="14.94" transform="translate(177.26 264.473) rotate(-79.49)"/><rect class="t" width="7.665" height="14.94" transform="translate(177.26 264.473) rotate(-79.49)"/><ellipse class="c" cx="1.571" cy="3.146" rx="1.571" ry="3.146" transform="translate(181.909 263.134) rotate(-79.49)"/><ellipse class="p" cx="1.571" cy="3.146" rx="1.571" ry="3.146" transform="translate(181.909 263.134) rotate(-79.49)"/><rect class="c" width="7.665" height="14.94" transform="translate(178.636 268.993) rotate(-79.49)"/><ellipse class="c" cx="1.571" cy="3.146" rx="1.571" ry="3.146" transform="translate(183.281 267.653) rotate(-79.49)"/><ellipse class="p" cx="1.571" cy="3.146" rx="1.571" ry="3.146" transform="translate(183.281 267.653) rotate(-79.49)"/><rect class="c" width="7.665" height="14.94" transform="translate(200.067 280.455) rotate(-61.58)"/><ellipse class="c" cx="1.571" cy="3.146" rx="1.571" ry="3.146" transform="translate(204.904 280.609) rotate(-61.58)"/><ellipse class="p" cx="1.571" cy="3.146" rx="1.571" ry="3.146" transform="translate(204.904 280.609) rotate(-61.58)"/><rect class="c" width="7.665" height="14.94" transform="translate(192.761 283.845) rotate(-79.49)"/><rect class="t" width="7.665" height="14.94" transform="translate(192.761 283.845) rotate(-79.49)"/><ellipse class="c" cx="1.571" cy="3.146" rx="1.571" ry="3.146" transform="translate(197.406 282.505) rotate(-79.49)"/><ellipse class="p" cx="1.571" cy="3.146" rx="1.571" ry="3.146" transform="translate(197.406 282.505) rotate(-79.49)"/><rect class="c" width="7.665" height="14.94" transform="translate(194.137 288.369) rotate(-79.49)"/><ellipse class="c" cx="1.571" cy="3.146" rx="1.571" ry="3.146" transform="translate(198.786 287.029) rotate(-79.49)"/><ellipse class="p" cx="1.571" cy="3.146" rx="1.571" ry="3.146" transform="translate(198.786 287.029) rotate(-79.49)"/><rect class="c" width="7.665" height="14.94" transform="translate(223.321 267.968) rotate(-61.58)"/><ellipse class="c" cx="1.571" cy="3.146" rx="1.571" ry="3.146" transform="translate(228.15 268.12) rotate(-61.58)"/><ellipse class="p" cx="1.571" cy="3.146" rx="1.571" ry="3.146" transform="translate(228.15 268.12) rotate(-61.58)"/><rect class="c" width="7.665" height="14.94" transform="translate(216.013 271.36) rotate(-79.49)"/><rect class="t" width="7.665" height="14.94" transform="translate(216.013 271.36) rotate(-79.49)"/><ellipse class="c" cx="1.571" cy="3.146" rx="1.571" ry="3.146" transform="translate(220.658 270.02) rotate(-79.49)"/><ellipse class="p" cx="1.571" cy="3.146" rx="1.571" ry="3.146" transform="translate(220.658 270.02) rotate(-79.49)"/><rect class="c" width="7.665" height="14.94" transform="translate(217.389 275.884) rotate(-79.49)"/><ellipse class="c" cx="1.571" cy="3.146" rx="1.571" ry="3.146" transform="translate(222.038 274.545) rotate(-79.49)"/><ellipse class="p" cx="1.571" cy="3.146" rx="1.571" ry="3.146" transform="translate(222.038 274.545) rotate(-79.49)"/></g></svg>