<svg xmlns="http://www.w3.org/2000/svg" xmlns:xlink="http://www.w3.org/1999/xlink" viewBox="0 0 419.776 243.47"><defs><style>.a{fill:#fff;}.b{clip-path:url(#a);}.c,.d,.j,.k{fill:#2496ef;}.c{opacity:0.5;}.e,.i{fill:none;stroke:#535461;stroke-miterlimit:10;}.e{stroke-width:0.524px;}.f,.p{fill:#32213a;}.f{opacity:0.1;}.g{fill:url(#b);}.h{fill:#535461;}.i{stroke-width:1.048px;}.j{opacity:0.7;}.k{opacity:0.8;}.l{fill:url(#c);}.m{fill:#fec3be;}.n{fill:#8b416f;}.o{fill:#4d4981;}.p{opacity:0.05;}.q{fill:#fd6f8d;}.r{fill:#784f69;}</style><clipPath id="a"><rect class="a" width="419.776" height="243.47"/></clipPath><linearGradient id="b" x1="0.5" y1="1" x2="0.5" gradientUnits="objectBoundingBox"><stop offset="0" stop-color="gray" stop-opacity="0.251"/><stop offset="0.54" stop-color="gray" stop-opacity="0.122"/><stop offset="1" stop-color="gray" stop-opacity="0.102"/></linearGradient><linearGradient id="c" y1="1" y2="0" xlink:href="#b"/></defs><g class="b" transform="translate(0)"><g transform="translate(0 0.785)"><path class="c" d="M169.179,278.519c-25.38-8.769-54.4-16.192-78.111-3.59-3.005,1.6-5.967,3.608-7.586,6.6-4.277,7.872,2.521,18.08-.792,26.4s-15.783,12.509-14.762,21.4a12.4,12.4,0,0,0,3.01,6.239c9.289,11.348,26.317,12.5,40.71,9.68s28.469-8.655,43.121-7.92c14.08.726,27.034,7.48,39.935,13.165,21.75,9.61,47.152,16.5,68.884,6.847,9.957-4.427,18.19-11.964,27.721-17.226a68.228,68.228,0,0,1,42.109-7.727c9.68,1.364,18.92,4.8,28.394,7.163,21.517,5.373,43.975,5.2,66.147,4.985,4.127-.04,8.321-.088,12.276-1.267,5.857-1.76,10.688-5.813,15.339-9.777,6.112-5.205,12.549-10.925,14.52-18.709,2.328-9.24-2.49-19.061-9.636-25.34s-16.28-9.711-25.2-13.02c-2.2-.81-4.55-1.632-6.8-1.021a9.277,9.277,0,0,0-3.828,2.451c-6.327,6.09-11.673,16.39-20.3,14.736-3.08-.59-5.6-2.732-8.039-4.713-13.016-10.56-30.524-18.714-46.232-12.879-11.489,4.268-19.6,15.229-31.241,19.1-8.281,2.754-17.279,1.562-25.991,2.1-12.672.774-25.006,5.254-37.7,4.981-32.358-.7-59.318-31.637-91.544-28.689-2.526.229-5.28.81-6.829,2.807" transform="translate(-65.012 -120.093)"/><path class="d" d="M138.544,244.993s-26.889,16.232,22.7,41.233c0,0,10.925-20.284-1.153-36.824a16.28,16.28,0,0,0-21.12-4.629Z" transform="translate(-75.184 -115.999)"/><path class="e" d="M140.318,245.028s23.021,17.6,22.379,41.559" transform="translate(-76.636 -116.373)"/><path class="d" d="M531.059,223.9c5.447,19.919-17.79,76.667-17.79,76.667s-48.894-37.018-54.346-56.937A37.4,37.4,0,1,1,531.055,223.9Z" transform="translate(-127.505 -108.432)"/><path class="f" d="M531.059,223.9c5.447,19.919-17.79,76.667-17.79,76.667s-48.894-37.018-54.346-56.937A37.4,37.4,0,1,1,531.055,223.9Z" transform="translate(-127.505 -108.432)"/><path class="e" d="M490.669,198.252S521.1,244.2,518.83,301.118" transform="translate(-132.85 -108.868)"/><path class="d" d="M549.73,272.336s-27.6-15.013-24.1,40.406c0,0,23.021-.823,31.192-19.6a16.28,16.28,0,0,0-6.684-20.57Z" transform="translate(-138.409 -120.457)"/><path class="e" d="M550.241,272.805s-3.564,28.768-24.557,40.309" transform="translate(-138.468 -120.83)"/><path class="d" d="M71.751,264.889s-26.9,16.228,22.687,41.216c0,0,10.925-20.285-1.153-36.824a16.28,16.28,0,0,0-21.121-4.629Z" transform="translate(-64.466 -119.189)"/><path class="e" d="M73.51,264.928s23.021,17.6,22.379,41.559" transform="translate(-65.917 -119.566)"/><path class="g" d="M416.428,263.279H388.157a9.426,9.426,0,0,0,.986-4.211V130.338a9.465,9.465,0,0,0-9.465-9.465H160.848a9.465,9.465,0,0,0-9.465,9.465V259.072a9.425,9.425,0,0,0,.986,4.211H123.1a2.5,2.5,0,0,0-2.5,2.517v2.02a14,14,0,0,0,14,14H404.931a14,14,0,0,0,14-14V265.8a2.5,2.5,0,0,0-2.5-2.521Zm-174.2,8.008-2.438-2.75h60.185l-2.684,2.754Z" transform="translate(-73.472 -96.453)"/><rect class="h" width="232.378" height="144.319" rx="12.191" transform="translate(80.591 26.242)"/><rect class="a" width="222.104" height="117.901" transform="translate(85.484 47.279)"/><circle class="a" cx="1.958" cy="1.958" r="1.958" transform="translate(194.58 35.047)"/><path class="h" d="M304.946,288.822l-7.63,7.828h-53.8l-6.895-7.828H127.067a2.446,2.446,0,0,0-2.446,2.446v1.971a13.684,13.684,0,0,0,13.684,13.684H402.514A13.684,13.684,0,0,0,416.2,293.24v-1.971a2.446,2.446,0,0,0-2.446-2.446Z" transform="translate(-74.118 -123.4)"/><path class="i" d="M135.622,65.088V165.375h165.84" transform="translate(-21.762 -10.47)"/><rect class="c" width="17.121" height="26.418" transform="translate(128.534 124.576)"/><rect class="j" width="17.121" height="49.902" transform="translate(157.888 101.092)"/><rect class="c" width="17.121" height="35.711" transform="translate(187.241 115.278)"/><rect class="k" width="17.121" height="57.729" transform="translate(216.594 93.265)"/><rect class="d" width="17.121" height="78.273" transform="translate(245.947 72.716)"/><path class="i" d="M163.006,120.677l29.842-26.907L222.2,119.208l28.865-30.818,29.353-12.232" transform="translate(-26.155 -12.246)"/><ellipse class="d" cx="3.423" cy="3.423" rx="3.423" ry="3.423" transform="translate(133.427 105.009)"/><ellipse class="d" cx="3.423" cy="3.423" rx="3.423" ry="3.423" transform="translate(192.134 103.05)"/><ellipse class="d" cx="3.423" cy="3.423" rx="3.423" ry="3.423" transform="translate(221.975 72.721)"/><ellipse class="d" cx="3.423" cy="3.423" rx="3.423" ry="3.423" transform="translate(163.269 77.609)"/><ellipse class="d" cx="3.423" cy="3.423" rx="3.423" ry="3.423" transform="translate(250.84 60.488)"/><path class="l" d="M499.869,261.494a17.161,17.161,0,0,0-6.6-1.038c-2.02-.735-6.767-2.64-10.01-5.509a72.2,72.2,0,0,0-.216-8.457c-1.659-18.863,2.072-31.3,2.072-31.3s2.93-9.487,2.609-17.358c.189.356.295.568.295.568.255-6.789,2.57-13.816,4.3-18.194a1.466,1.466,0,0,0,.194-.07l1.936-4.594a3.988,3.988,0,0,0,.365-.849l.312-.726-.092-.04c.031-.119.062-.246.092-.374h0c1.236-5.232,2.2-17.64,2.2-17.64,3.318-13.06-4.559-21.12-4.559-21.12l-13.368-11.5a1.7,1.7,0,0,1,.132.471l-.11-.1c-.189-.541-.4-1.188-.6-1.927a11.3,11.3,0,0,0,4.316-6.477,20.274,20.274,0,0,0,.2-4.84l-.22-5.549a17.6,17.6,0,0,0-.33-3.234c-1.008-4.4-5.518-7.48-10.045-7.683a36.717,36.717,0,0,0-4.312.229,29.008,29.008,0,0,1-3.52.075.634.634,0,0,1-.378-.1.554.554,0,0,1-.163-.383,1.91,1.91,0,0,1,.466-1.43,1.76,1.76,0,0,1,.607-.348l-.321.075a1.76,1.76,0,0,1,.528-.286A10.248,10.248,0,0,0,462.318,93a4.305,4.305,0,0,0-.779.656,3.4,3.4,0,0,0-1.126,2.094,3.9,3.9,0,0,1-1.188-1.76,1.76,1.76,0,0,1,0-.854q-.119.145-.229.3v-.092a8.9,8.9,0,0,0-1.76,3.582,1.4,1.4,0,0,1-.317-1.03q-.1.31-.185.62a1.435,1.435,0,0,1,0-.414,14.171,14.171,0,0,0-.691,4.919c0,1.663.739,4.255,2.521,4.84.092.031.185.053.282.075a11.189,11.189,0,0,0,7.546,17.09q.044.3.084.638h.07c.048.44.088.924.114,1.417a9.537,9.537,0,0,1-1.47,1.179,12.118,12.118,0,0,1-4.893,1.619,14.565,14.565,0,0,0-5.883,1.76c-2.134,1.192-4.488,2.93-5.227,5.043-1.232,3.52-8.017,9-12.567,9.68L435,144.266l-.119-.035v.031l-.4-.022h-.128v.022l-.409-.022s-.04.189-.1.524c-2.288-.788-7.15-2.97-13.478-8.712-7.04-6.393-16.566-5.135-20.24-4.33a.629.629,0,0,0-.167,1.166,20.431,20.431,0,0,0,4.84,2.13s-2.2,2.3.141,3.52a1.7,1.7,0,0,0,1.76-.172c1.135-.832,4.29,1.052,8.862,2.033,0,0,12.9,13.35,19.308,15.4a9.219,9.219,0,0,0,.488.849l.4-.031v.031h.167l.048.44s9.962-.524,13.2-4.141a5.192,5.192,0,0,0,.629-.673l-3.463,43.561h.031l-.031.414h2.548a96.025,96.025,0,0,1-.691,16.043v28.4s-.132,2.5,5.06,6.16a194.086,194.086,0,0,1,15.717,12.184l.629.546c-.955,8.69-2.952,24.887-4.62,25.49l1.03.18c-1.76,2.231-6.759,8.36-8.281,8.523-1.866.207-3.111,3.111,0,3.731a34.853,34.853,0,0,0,18.48-1.822,2.82,2.82,0,0,0,1.76-3l-.6-4.576a.642.642,0,0,1,.264.277c.414,1.245,0-1.659,0-1.659A129.681,129.681,0,0,0,481.648,270l6.16,5.324s.123-.154.339-.44c1.509,3.423,4.2,10.428,3.6,15.559-.827,7.04,7.04.827,6.217-3.318-.669-3.353,2.323-17.565,3.489-22.881a2.363,2.363,0,0,0-1.584-2.754Z" transform="translate(-118.244 -91.786)"/><path class="m" d="M435.689,154.328s-5.87-1.012-14.573-8.906c-6.886-6.244-16.175-5.016-19.756-4.228a.612.612,0,0,0-.163,1.135,20.005,20.005,0,0,0,4.743,2.081s-2.169,2.244.136,3.445a1.659,1.659,0,0,0,1.734-.167c1.109-.81,4.189,1.03,8.655,1.984,0,0,17.407,18.014,21.455,14.96Z" transform="translate(-118.443 -99.608)"/><path class="m" d="M478.038,126.128s1.619,6.882,0,11.739l7.287,1.012,6.477-3.238v-4.251a29.188,29.188,0,0,1-2.226-13.966Z" transform="translate(-130.823 -95.9)"/><path class="n" d="M502.613,303.147s5.28,10.323,4.453,17.2,6.882.81,6.072-3.238c-.656-3.274,2.266-17.16,3.406-22.326a2.306,2.306,0,0,0-1.531-2.688c-2.433-.8-6.508-1.782-8.554-.282C503.436,294.039,502.613,303.147,502.613,303.147Z" transform="translate(-134.766 -123.755)"/><path class="n" d="M476.745,318.847s-6.882,8.906-8.7,9.108-3.036,3.036,0,3.643a34.03,34.03,0,0,0,18.04-1.76,2.754,2.754,0,0,0,1.729-2.93l-1.162-8.668Z" transform="translate(-128.922 -128.12)"/><path class="o" d="M463.984,206.381l-6.6.88a96.6,96.6,0,0,1-.079,23.2v27.721s-.128,2.442,4.941,5.993a189.511,189.511,0,0,1,15.348,11.88l18.366,15.911s7.287-8.906,6.275-14.168c0,0-12.144-3.846-13.764-10.12-.928-3.59-5.637-6.6-9.491-8.492a11.8,11.8,0,0,1-6.314-13.394,10.329,10.329,0,0,1,1.034-2.6c3.238-5.667,7.894-18.419,7.894-18.419L472.688,207.8Z" transform="translate(-127.496 -110.172)"/><path class="p" d="M463.984,206.381l-6.6.88a96.6,96.6,0,0,1-.079,23.2v27.721s-.128,2.442,4.941,5.993a189.511,189.511,0,0,1,15.348,11.88l18.366,15.911s7.287-8.906,6.275-14.168c0,0-12.144-3.846-13.764-10.12-.928-3.59-5.637-6.6-9.491-8.492a11.8,11.8,0,0,1-6.314-13.394,10.329,10.329,0,0,1,1.034-2.6c3.238-5.667,7.894-18.419,7.894-18.419L472.688,207.8Z" transform="translate(-127.496 -110.172)"/><path class="o" d="M475.6,301.534s11.942,2.024,12.347,3.238,0-1.619,0-1.619,6.882-20.848,5.28-39.262,2.024-30.563,2.024-30.563,4.25-13.764,1.822-21.657-27.932-4.453-27.932-4.453,8.906,20.848,8.7,30.766c0,0,1.012,29.956,2.834,33.4C480.659,271.363,477.825,300.712,475.6,301.534Z" transform="translate(-129.395 -110.187)"/><path class="a" d="M475.065,134.06s1.214,7.48,13.359,4.25l-8.079,61.527s-23.479.81-23.277-2.024l4.84-37.238Z" transform="translate(-127.458 -98.569)"/><path class="f" d="M472.944,133.578a9.865,9.865,0,0,1-5.848,2.776,14.225,14.225,0,0,0-5.746,1.707c-2.081,1.166-4.4,2.86-5.1,4.924-1.417,4.048-10.323,10.727-14.371,9.311l1.417,12.144s11.537-.607,13.561-5.06l-3.436,43.337h3.036s1.619-11.74,2.834-14.168,3.643-15.788,3.846-19.026,3.238-21.86,5.87-25.081l3.96-9.614Z" transform="translate(-125.021 -98.491)"/><path class="f" d="M472.868,134.3a12.527,12.527,0,0,1-6.253,2.574,14.226,14.226,0,0,0-5.742,1.716c-2.081,1.166-4.4,2.86-5.1,4.924-1.417,4.048-10.323,10.727-14.371,9.311l1.417,12.144s11.537-.607,13.561-5.06l-3.441,43.31h3.036s1.619-11.74,2.834-14.168,3.643-15.788,3.846-19.026,3.238-21.86,5.87-25.081l4.347-9.434Z" transform="translate(-124.944 -98.607)"/><path class="q" d="M472.867,133.819a12.527,12.527,0,0,1-6.253,2.574,14.225,14.225,0,0,0-5.747,1.707c-2.081,1.166-4.4,2.86-5.1,4.924-1.417,4.048-10.323,10.727-14.371,9.311l1.417,12.144s11.537-.607,13.561-5.06l-3.436,43.337h3.036s1.619-11.739,2.834-14.168,3.643-15.788,3.846-19.026,3.238-21.86,5.87-25.081l4.352-9.412Z" transform="translate(-124.943 -98.53)"/><path class="f" d="M489.069,123.512c-.264-1.918.264-3.115.506-5.364l-11.537,8.7s.277,1.175.488,2.9a11,11,0,0,0,1.76.141C484.291,129.888,487.173,126.759,489.069,123.512Z" transform="translate(-130.823 -96.016)"/><ellipse class="m" cx="10.93" cy="10.93" rx="10.93" ry="10.93" transform="translate(338.512 11.409)"/><path class="f" d="M466.48,103.949a13.833,13.833,0,0,1,.88-5.408,1.351,1.351,0,0,0,.229,1.76,8.659,8.659,0,0,1,2.746-4.867,1.488,1.488,0,0,0-.986,1.857,4.225,4.225,0,0,0,1.351,1.9,3.4,3.4,0,0,1,1.668-2.873,10.006,10.006,0,0,1,3.256-1.179,1.888,1.888,0,0,0-1.25,1.936.541.541,0,0,0,.163.374.621.621,0,0,0,.37.1,28.324,28.324,0,0,0,3.419-.075,35.855,35.855,0,0,1,4.211-.224c4.4.185,8.822,3.19,9.808,7.48a17.2,17.2,0,0,1,.321,3.159l.216,5.417a19.8,19.8,0,0,1-.194,4.735,10.032,10.032,0,0,1-5.153,6.811c-1.588-2.3-1.729-5.258-2.279-8a4.048,4.048,0,0,0-.686-1.76,1.544,1.544,0,0,0-1.694-.572.973.973,0,0,0-.356,1.549c-.44.519-1.263.132-1.76-.33a9.451,9.451,0,0,1-2.741-4.9c-.2-.942-.4-2.1-1.32-2.424a2.455,2.455,0,0,0-.977-.066c-1.927.132-4.941.928-6.807.317C467.2,108.107,466.48,105.573,466.48,103.949Z" transform="translate(-128.967 -92.324)"/><path class="r" d="M466.721,103.708a13.833,13.833,0,0,1,.88-5.408,1.351,1.351,0,0,0,.229,1.76,8.66,8.66,0,0,1,2.746-4.866,1.488,1.488,0,0,0-.986,1.857,4.224,4.224,0,0,0,1.351,1.9,3.4,3.4,0,0,1,1.668-2.873,10.006,10.006,0,0,1,3.256-1.179,1.888,1.888,0,0,0-1.25,1.936.541.541,0,0,0,.163.374.62.62,0,0,0,.37.1,28.328,28.328,0,0,0,3.419-.075,35.86,35.86,0,0,1,4.211-.224c4.4.185,8.822,3.19,9.808,7.48a17.194,17.194,0,0,1,.321,3.159l.216,5.417a19.8,19.8,0,0,1-.194,4.735,10.033,10.033,0,0,1-5.153,6.811c-1.588-2.3-1.729-5.258-2.279-8a4.048,4.048,0,0,0-.686-1.76,1.544,1.544,0,0,0-1.694-.572.973.973,0,0,0-.356,1.549c-.44.519-1.263.132-1.76-.33a9.451,9.451,0,0,1-2.741-4.9c-.2-.942-.4-2.1-1.32-2.424a2.455,2.455,0,0,0-.977-.066c-1.927.132-4.941.928-6.807.317C467.443,107.862,466.721,105.332,466.721,103.708Z" transform="translate(-129.005 -92.285)"/><path class="f" d="M440.687,155.878s-1.619,7.48,1.417,12.144l1.72-.141L442.887,156Z" transform="translate(-124.761 -102.069)"/><path class="q" d="M441.211,155.878s-1.619,7.48,1.417,12.144l1.72-.141L443.411,156Z" transform="translate(-124.845 -102.069)"/><path class="f" d="M490.417,131.549l13.055,11.233s7.691,7.894,4.453,20.645c0,0-1.417,18.621-3.036,19.431,0,0-5.667,11.335-6.072,22.062,0,0-7.59-15.282-11.031-5.971s-11.44,10.626-11.44,10.626L480.8,154.5S492.036,134.973,490.417,131.549Z" transform="translate(-130.551 -98.166)"/><path class="q" d="M490.9,131.549l13.055,11.233s7.691,7.894,4.453,20.645c0,0-1.417,18.621-3.036,19.431,0,0-5.667,11.335-6.072,22.062,0,0-7.995-16.091-11.44-6.781s-11.031,11.44-11.031,11.44l4.453-55.05S492.518,134.973,490.9,131.549Z" transform="translate(-130.629 -98.166)"/><path class="m" d="M499.018,187.987s3.238-2.226,8.5,3.846l-12.954,23.479-4.352-6.569S499.423,190.618,499.018,187.987Z" transform="translate(-132.776 -107.157)"/><path class="f" d="M496.964,188.973s7.163,8.043,9.957,6.754l2.587-6.024-9.711-4.171Z" transform="translate(-133.859 -106.827)"/><path class="q" d="M496.964,188.491s7.163,8.043,9.957,6.754l2.587-6.024L499.8,185.05Z" transform="translate(-133.859 -106.75)"/><path class="f" d="M490.5,210.956s3.41,6.987,5.227,7.392l-2.64,3.036-3.846-7.287Z" transform="translate(-132.62 -110.907)"/><path class="o" d="M490.254,211.213s3.41,6.987,5.227,7.392l-2.64,3.036-3.854-7.3Z" transform="translate(-132.58 -110.948)"/><path class="f" d="M497.937,159.736s.4,14.573-1.214,20.038" transform="translate(-133.821 -102.688)"/><path class="f" d="M459.113,162.569s2.429-.81,2.429-2.834" transform="translate(-127.786 -102.688)"/><path class="i" d="M106.553,166.014s-11.537,23.866-3.96,52.11,5.17,62.041-2.385,70.4" transform="translate(-70.17 -103.696)"/><circle class="d" cx="3.181" cy="3.181" r="3.181" transform="translate(33.202 59.142)"/><path class="i" d="M102.09,183.88s11.959,2.156,15.141-2.2" transform="translate(-70.503 -106.209)"/><path class="i" d="M99.435,190.121s-7.194-7.96-6.8-12.734" transform="translate(-68.984 -105.52)"/><path class="i" d="M100.009,207.821s6.543,1.725,12.514-11" transform="translate(-70.169 -108.639)"/><path class="i" d="M99.326,219.261s-16.28-10.477-14.3-17.235" transform="translate(-67.739 -109.474)"/><path class="i" d="M105.119,233s11.405-10.12,10.213-20.078" transform="translate(-70.989 -111.222)"/><path class="i" d="M103.9,243.241s-14.52-4.057-14.08-10.419" transform="translate(-68.533 -114.415)"/><path class="i" d="M107.8,252.631s9.148-8.475,10.34-13.64" transform="translate(-71.419 -115.405)"/><path class="i" d="M106.692,269.244s-9.385-10.956-9.786-16.522" transform="translate(-69.671 -117.608)"/><path class="i" d="M108.562,279.91s10.5-11.669,11.3-17.235" transform="translate(-71.541 -119.205)"/><circle class="d" cx="3.181" cy="3.181" r="3.181" transform="translate(20.472 69.482)"/><circle class="d" cx="3.181" cy="3.181" r="3.181" transform="translate(16.895 115.226)"/><circle class="d" cx="3.181" cy="3.181" r="3.181" transform="translate(14.11 89.371)"/><circle class="d" cx="3.181" cy="3.181" r="3.181" transform="translate(43.546 72.267)"/><circle class="d" cx="3.181" cy="3.181" r="3.181" transform="translate(43.546 121.192)"/><circle class="d" cx="3.181" cy="3.181" r="3.181" transform="translate(38.376 84.997)"/><circle class="d" cx="3.181" cy="3.181" r="3.181" transform="translate(44.739 142.277)"/><circle class="d" cx="3.181" cy="3.181" r="3.181" transform="translate(23.258 133.922)"/><circle class="d" cx="3.181" cy="3.181" r="3.181" transform="translate(41.558 98.518)"/></g></g></svg>