<svg xmlns="http://www.w3.org/2000/svg" xmlns:xlink="http://www.w3.org/1999/xlink" viewBox="0 0 195.341 211.094"><defs><style>.a{fill:url(#a);}.b{fill:#f5f5f5;}.c{fill:#fafafa;}.d{fill:url(#e);}.e,.p{fill:#fff;}.f{fill:#69f0ae;}.g{fill:url(#f);}.h{fill:url(#i);}.i{fill:url(#k);}.j,.k,.l,.m{fill:#23eaae;}.k{opacity:0.7;}.l{opacity:0.5;}.m{opacity:0.3;}.n,.p{opacity:0.2;}.o{fill:url(#m);}.q{fill:url(#n);}</style><linearGradient id="a" x1="0.5" y1="1" x2="0.5" gradientUnits="objectBoundingBox"><stop offset="0" stop-color="gray" stop-opacity="0.251"/><stop offset="0.54" stop-color="gray" stop-opacity="0.122"/><stop offset="1" stop-color="gray" stop-opacity="0.102"/></linearGradient><linearGradient id="e" x1="0.503" y1="1.334" x2="0.503" y2="0.334" xlink:href="#a"/><linearGradient id="f" x1="0.193" y1="0.692" x2="0.193" y2="0.203" xlink:href="#a"/><linearGradient id="i" x1="0.5" x2="0.5" y2="0" xlink:href="#a"/><linearGradient id="k" x1="0.5" x2="0.5" y2="0" xlink:href="#a"/><linearGradient id="m" x1="0.5" x2="0.5" y2="0" xlink:href="#a"/><linearGradient id="n" x1="0.5" x2="0.5" y2="0" xlink:href="#a"/></defs><rect class="a" width="14.457" height="17.098" transform="translate(161.382 193.996)"/><rect class="b" width="13.786" height="16.476" transform="translate(175.504 210.469) rotate(180)"/><rect class="a" width="14.457" height="17.098" transform="translate(19.836 193.996)"/><rect class="b" width="13.786" height="16.476" transform="translate(20.173 193.996)"/><rect class="a" width="195.341" height="196.349" rx="14.86"/><rect class="c" width="192.985" height="192.985" rx="14.86" transform="translate(1.345 1.008)"/><rect class="a" width="130.452" height="131.797" transform="translate(32.445 32.108)"/><rect class="d" width="43.371" height="21.181" transform="translate(133.463 76.658) rotate(-14.86)"/><rect class="e" width="42.7" height="20.51" transform="translate(133.872 76.898) rotate(-14.86)"/><rect class="f" width="39.9" height="19.165" transform="translate(135.4 77.186) rotate(-14.86)"/><ellipse class="e" cx="7.395" cy="4.035" rx="7.395" ry="4.035" transform="translate(148.748 79.212) rotate(-14.86)"/><rect class="g" width="21.181" height="43.371" transform="translate(132.322 115.384) rotate(-71.04)"/><rect class="e" width="42.7" height="20.51" transform="translate(139.412 95.779) rotate(18.96)"/><rect class="f" width="39.9" height="19.165" transform="translate(140.519 96.872) rotate(18.96)"/><ellipse class="e" cx="4.035" cy="7.395" rx="4.035" ry="7.395" transform="translate(147.864 113.612) rotate(-71.04)"/><rect class="a" width="43.371" height="21.181" transform="translate(141.165 87.176)"/><rect class="e" width="42.7" height="20.51" transform="translate(141.502 87.513)"/><rect class="f" width="39.9" height="19.165" transform="translate(142.902 88.184)"/><ellipse class="e" cx="7.395" cy="4.035" rx="7.395" ry="4.035" transform="translate(155.288 93.564)"/><rect class="e" width="128.433" height="128.433" transform="translate(33.452 33.452)"/><ellipse class="a" cx="24.208" cy="24.208" rx="24.208" ry="24.208" transform="translate(73.462 73.462)"/><ellipse class="c" cx="23.2" cy="23.2" rx="23.2" ry="23.2" transform="translate(74.47 74.47)"/><rect class="h" width="7.061" height="7.395" transform="translate(80.02 143.898)"/><rect class="h" width="7.061" height="7.395" transform="translate(89.434 143.898)"/><rect class="i" width="7.061" height="7.395" transform="translate(98.845 143.898)"/><rect class="i" width="7.061" height="7.395" transform="translate(108.26 143.898)"/><rect class="j" width="6.724" height="6.724" transform="translate(80.187 144.235)"/><rect class="k" width="6.724" height="6.724" transform="translate(89.601 144.235)"/><rect class="l" width="6.724" height="6.724" transform="translate(99.015 144.235)"/><rect class="m" width="6.724" height="6.724" transform="translate(108.43 144.235)"/><rect class="j" width="1.345" height="4.706" transform="matrix(0.819, 0.574, -0.574, 0.819, 107.381, 82.922)"/><rect class="j" width="1.345" height="4.706" transform="matrix(-0.574, 0.819, -0.819, -0.574, 112.419, 107.379)"/><rect class="j" width="1.345" height="4.706" transform="matrix(-0.819, -0.574, 0.574, -0.819, 87.959, 112.417)"/><rect class="j" width="1.345" height="4.706" transform="matrix(0.574, -0.819, 0.819, 0.574, 82.923, 87.96)"/><rect class="n" width="1.345" height="4.706" transform="matrix(0.819, 0.574, -0.574, 0.819, 107.369, 82.883)"/><rect class="n" width="1.345" height="4.706" transform="matrix(-0.574, 0.819, -0.819, -0.574, 112.408, 107.341)"/><rect class="n" width="1.345" height="4.706" transform="matrix(-0.819, -0.574, 0.574, -0.819, 87.95, 112.377)"/><rect class="n" width="1.345" height="4.706" transform="matrix(0.574, -0.819, 0.819, 0.574, 82.913, 87.92)"/><ellipse class="o" cx="14.624" cy="14.624" rx="14.624" ry="14.624" transform="translate(83.047 83.047)"/><ellipse class="j" cx="13.786" cy="13.786" rx="13.786" ry="13.786" transform="translate(83.885 83.885)"/><path class="p" d="M554.213,390.447a13.783,13.783,0,0,1,20.64-11.972,13.783,13.783,0,1,0-16.415,21.887A13.74,13.74,0,0,1,554.213,390.447Z" transform="translate(-467.805 -290.928)"/><path class="q" d="M369.679,311.546H358.92V284.683a1.045,1.045,0,0,1,1.045-1.043h8.671a1.045,1.045,0,0,1,1.045,1.045Z" transform="translate(-330.677 -226.146)"/><path class="a" d="M368.582,494.836h-8.565a1.1,1.1,0,0,1-1.1-1.1V466.93h10.759v26.8a1.1,1.1,0,0,1-1.1,1.1Z" transform="translate(-330.677 -356.652)"/><path class="c" d="M100.164,200.8h8.262a.913.913,0,0,1,.913.913V227.7H99.26V201.722A.913.913,0,0,1,100.164,200.8Z" transform="translate(-70.674 -142.972)"/><path class="c" d="M99.23,384.1h10.08v26.59a.305.305,0,0,1-.305.305H99.538a.305.305,0,0,1-.305-.305V384.1Z" transform="translate(-70.653 -273.485)"/></svg>