<svg xmlns="http://www.w3.org/2000/svg" xmlns:xlink="http://www.w3.org/1999/xlink" viewBox="0 0 449.78 224.076"><defs><style>.a,.o,.w{fill:#32213a;}.a,.v{opacity:0.1;}.b{fill:#ffe772;}.c,.p{fill:none;stroke:#535461;stroke-miterlimit:10;}.c{stroke-width:0.447px;}.d,.e{fill:#f5f5f5;}.d,.o{opacity:0.2;}.f{fill:#ededf4;}.g{fill:#1a2246;}.h{fill:#fff;}.i{fill:#fe5858;}.j{fill:#f1c413;}.k{fill:url(#a);}.l{fill:#965d7b;}.m{fill:#f7c4a7;}.n{fill:#a8a8a8;}.p{stroke-width:0.893px;}.q{fill:url(#b);}.r{fill:#59495d;}.s{fill:#f0b9bb;}.t{fill:#524d64;}.u{fill:#e2e8f0;}.x{fill:#575168;}.y{fill:#ea3869;}.z{filter:url(#e);}.aa{filter:url(#c);}</style><linearGradient id="a" x1="0.5" y1="1" x2="0.5" gradientUnits="objectBoundingBox"><stop offset="0" stop-color="gray" stop-opacity="0.251"/><stop offset="0.54" stop-color="gray" stop-opacity="0.122"/><stop offset="1" stop-color="gray" stop-opacity="0.102"/></linearGradient><linearGradient id="b" x1="-5.321" y1="1" x2="-5.321" y2="0" xlink:href="#a"/><filter id="c" x="75" y="76.803" width="25" height="25" filterUnits="userSpaceOnUse"><feOffset dx="-2" dy="3" input="SourceAlpha"/><feGaussianBlur stdDeviation="3" result="d"/><feFlood flood-opacity="0.161"/><feComposite operator="in" in2="d"/><feComposite in="SourceGraphic"/></filter><filter id="e" x="67" y="76.803" width="25" height="25" filterUnits="userSpaceOnUse"><feOffset dx="-2" dy="3" input="SourceAlpha"/><feGaussianBlur stdDeviation="3" result="f"/><feFlood flood-opacity="0.161"/><feComposite operator="in" in2="f"/><feComposite in="SourceGraphic"/></filter></defs><g transform="translate(-0.003 0.004)"><ellipse class="a" cx="215.132" cy="61.468" rx="215.132" ry="61.468" transform="translate(19.519 101.136)"/><path class="b" d="M436.047,165.6a20.711,20.711,0,0,1,3.778,21.542c-4.894,12.87,8.4,34.273,8.4,34.273l-.406-.067a25.247,25.247,0,0,1-16.759-38.649C434.734,177.063,437.757,170.463,436.047,165.6Z" transform="translate(-43.039 -88.913)"/><path class="c" d="M436.047,165.6s4.912,10.632,0,19.3-.84,33.014,12.169,36.51" transform="translate(-43.039 -88.913)"/><path class="b" d="M420.6,200.673s9.9-1.576,10.8,7.292,19.032,10.1,19.032,10.1l-.339.228c-14.969,9.824-29.276,6.252-27.119-6.788C423.78,206.652,423.7,201.78,420.6,200.673Z" transform="translate(-43.039 -88.913)"/><path class="d" d="M420.6,200.673s9.9-1.576,10.8,7.292,19.032,10.1,19.032,10.1l-.339.228c-14.969,9.824-29.276,6.252-27.119-6.788C423.78,206.652,423.7,201.78,420.6,200.673Z" transform="translate(-43.039 -88.913)"/><path class="c" d="M420.6,200.673s7.681,1.688,7.051,8.672,11.409,15.357,22.774,8.721" transform="translate(-43.039 -88.913)"/><path class="e" d="M358.748,168.1l-21.377-1.581H56.328V125.348h302.42Z"/><path class="f" d="M96.456,108.959H78V98.09A7.591,7.591,0,0,1,85.587,90.5h3.278a7.591,7.591,0,0,1,7.591,7.591Z" transform="translate(-43.039 -88.913)"/><path class="b" d="M413.134,194.47v62.808l-20.613-.268c0-.447.031-.893.031-1.313a40.636,40.636,0,1,0-81.273,0c0,.089,0,.179,0,.263l-20.573-.268H184.079a40.639,40.639,0,0,0-.25-4.466c-.076-.715-.17-1.416-.29-2.112a39.925,39.925,0,0,0-1.224-5.3c-.214-.714-.447-1.416-.706-2.112a40.9,40.9,0,0,0-2.376-5.278c-.384-.719-.795-1.42-1.224-2.112a40.72,40.72,0,0,0-3.889-5.278q-.951-1.094-1.969-2.112a40.636,40.636,0,0,0-57.422,0q-1.023,1.023-1.969,2.112a40.719,40.719,0,0,0-3.889,5.278c-.447.692-.84,1.393-1.224,2.112a40.9,40.9,0,0,0-2.376,5.278c-.255.7-.491,1.4-.706,2.112a39.924,39.924,0,0,0-1.224,5.278c-.121.7-.214,1.4-.29,2.112a40.638,40.638,0,0,0-.25,4.466H62.165V116.886H348.759l28.432,62,35.336,15.326Z" transform="translate(-43.039 -88.913)"/><path class="e" d="M25.454,14.776H294.547A11.164,11.164,0,0,1,305.711,25.94v2.032H19.121V21.1a6.328,6.328,0,0,1,6.332-6.328Z"/><path class="f" d="M284.357,103.69H218.91v-2.465a12.316,12.316,0,0,1,12.316-12.316h37.823Z" transform="translate(-43.039 -88.913)"/><rect class="a" width="36.943" height="25.333" rx="4.912" transform="translate(13.316 146.193)"/><path class="a" d="M247.387,166.516H216.775V27.709H276.94v96.054Z"/><rect class="e" width="36.943" height="25.333" rx="4.912" transform="translate(12.789 147.251)"/><rect class="a" width="20.055" height="29.557" rx="6.176" transform="translate(359.012 145.139)"/><rect class="e" width="20.055" height="29.557" rx="6.176" transform="translate(360.066 145.666)"/><rect class="g" width="120.86" height="65.443" transform="translate(57.119 42.222)"/><rect class="e" width="63.862" height="56.471" transform="translate(114.385 47.763)"/><path class="h" d="M114.385,92.888,160.3,58.847l6.337,1.585L114.385,98.166Z"/><path class="h" d="M114.385,79.165l24.806-26.65,11.61,2.639-36.417,34.3Z"/><rect class="e" width="44.334" height="61.223" rx="7.145" transform="translate(225.483 38.002)"/><rect class="g" width="5.805" height="12.669" transform="translate(261.373 104.498)"/><path class="e" d="M330.8,135.619v43.718a2.465,2.465,0,0,0,2.465,2.465h26.9a2.465,2.465,0,0,0,2.1-3.756l-26.9-43.718a2.465,2.465,0,0,0-4.564,1.291Z" transform="translate(-43.039 -88.913)"/><path class="h" d="M239.733,38l-14.25,12.664v6.6L245.8,38Z"/><path class="h" d="M225.483,64.911V72.57L259.261,38h-6.6Z"/><path class="h" d="M296.691,52.515l-8.931,12.4v4.756l11.856-12.4Z"/><path class="h" d="M303.679,64.911l-15.92,13.6v3.827l19.488-12.669Z"/><circle class="g" cx="28.499" cy="28.499" r="28.499" transform="translate(71.9 138.28)"/><circle class="h" cx="15.835" cy="15.835" r="15.835" transform="translate(84.564 150.944)"/><circle class="g" cx="4.224" cy="4.224" r="4.224" transform="translate(95.911 162.291)"/><circle class="g" cx="28.499" cy="28.499" r="28.499" transform="translate(280.374 138.28)"/><circle class="h" cx="15.835" cy="15.835" r="15.835" transform="translate(293.038 150.944)"/><circle class="g" cx="4.224" cy="4.224" r="4.224" transform="translate(304.912 162.291)"/><rect class="a" width="197.917" height="2.112" transform="translate(18.858 123.236)"/><path class="a" d="M366.4,125.348H275.886l1.054-1.585v-.527H366.4"/><path class="a" d="M366.4,116.377H276.94v-2.112H366.4"/><path class="a" d="M366.4,107.4H276.94v-2.108h88.851"/><path class="a" d="M124.857,219.54a40.473,40.473,0,0,0-3.622,2.112H61.9V219.54Z" transform="translate(-43.039 -88.913)"/><path class="a" d="M259.814,219.54v2.112H165.645a40.475,40.475,0,0,0-3.622-2.112Z" transform="translate(-43.039 -88.913)"/><path class="a" d="M114.729,226.93q-1.023,1.023-1.969,2.112H61.9V226.93Z" transform="translate(-43.039 -88.913)"/><path class="a" d="M259.814,226.93v2.112H174.121q-.951-1.094-1.969-2.112Z" transform="translate(-43.039 -88.913)"/><path class="a" d="M108.87,234.316c-.447.692-.84,1.393-1.224,2.112H61.9v-2.112Z" transform="translate(-43.039 -88.913)"/><path class="a" d="M259.814,234.316v2.112H179.234c-.384-.719-.795-1.42-1.224-2.112Z" transform="translate(-43.039 -88.913)"/><path class="a" d="M105.271,241.707c-.255.7-.491,1.4-.706,2.112h-11v-2.112Z" transform="translate(-43.039 -88.913)"/><path class="a" d="M259.814,241.707v2.112h-77.5c-.214-.714-.447-1.416-.706-2.112Z" transform="translate(-43.039 -88.913)"/><path class="a" d="M103.337,249.1c-.121.7-.214,1.4-.29,2.112H93.562V249.1Z" transform="translate(-43.039 -88.913)"/><path class="a" d="M259.814,249.1v2.112H183.829c-.076-.714-.17-1.416-.29-2.112Z" transform="translate(-43.039 -88.913)"/><path class="i" d="M216.007,187.553h-3.166v-7.591l1.34-2.639a.295.295,0,0,1,.527,0l1.34,2.639Z" transform="translate(-43.039 -88.913)"/><rect class="a" width="3.166" height="0.317" transform="translate(169.802 91.057)"/><path class="j" d="M220.759,187.553h-3.166v-7.591l1.34-2.639a.295.295,0,0,1,.527,0l1.34,2.639Z" transform="translate(-43.039 -88.913)"/><rect class="a" width="3.166" height="0.317" transform="translate(174.554 91.057)"/><path class="k" d="M140.781,177.546a1.337,1.337,0,0,0-.067-.2c.183-1.893.719-8.163-.054-9.663-.6-1.17-2.233-1.161-4.157-.759,0-.2.027-.4.027-.607v-6.408a7.337,7.337,0,0,0-7.444-7.221H127.88a7.337,7.337,0,0,0-7.444,7.221v6.408a4.744,4.744,0,0,0,.022.563c-2.085.143-4.064,1.447-3.6,6.131v5.327h.42a4.8,4.8,0,0,0,.447.268l.982,9.052h3.206l-.04.447h12.548c1.027.076,2.05.13,2.849.125a5.921,5.921,0,0,0,1.541-.125c1.375-.447,1.375-3.126,1.375-3.126l.447-6.667A.893.893,0,0,0,140.781,177.546Zm-18.1,1.634h.045v.085l-.045-.036ZM134.7,180.3l.228,3.367H134.7Zm-12.794,2.92.768-3.921h.049l-.371,3.97Z" transform="translate(-43.039 -88.913)"/><rect class="l" width="15.451" height="20.635" rx="6.538" transform="translate(77.718 63.884)"/><path class="m" d="M117.323,172.915l.8,5.405h4.93l-.908,9.523h12.3v-9.668s4.859.518,5.739-.375c0,0,.893-7.562,0-9.317s-4.006-1.682-7.083-.806S116.444,163.68,117.323,172.915Z" transform="translate(-43.039 -88.913)"/><path class="m" d="M118.109,178.175l.969,9.235h9.668s3.956-2.635,1.759-3.514a5.55,5.55,0,0,0-3.514-.447L122.159,183l.915-4.827Z" transform="translate(-43.039 -88.913)"/><path class="a" d="M139.959,177.729l-.447,7.038s0,2.635-1.34,3.077-8.351-.447-8.351-.447-2.635,0-2.2-2.2a3.491,3.491,0,0,1,3.514-2.635,5.354,5.354,0,0,1,2.2.893h1.34l-.344-5.283Z" transform="translate(-43.039 -88.913)"/><path class="m" d="M140.183,177.622l-.447,7.144s0,2.635-1.34,3.077-8.351-.447-8.351-.447-2.635,0-2.2-2.2a3.491,3.491,0,0,1,3.514-2.635,5.355,5.355,0,0,1,2.2.893h1.34l-.44-5.439Z" transform="translate(-43.039 -88.913)"/><path class="m" d="M124.352,161.59s1.34,4.832.447,6.154,2.769,4.05,4.354,4.019c.942,0,4.278-2.349,4-4.019-.228-1.371-2.2-5.274-1.759-7.029Z" transform="translate(-43.039 -88.913)"/><path class="a" d="M128.527,167.641a6.127,6.127,0,0,0,4.019-1.509c-.63-1.724-1.483-3.979-1.179-5.2l-7.029.893a21.453,21.453,0,0,1,.741,4.783,6.122,6.122,0,0,0,3.447,1.032Z" transform="translate(-43.039 -88.913)"/><circle class="m" cx="6.154" cy="6.154" r="6.154" transform="translate(79.335 66.202)"/><path class="a" d="M124.781,163.979c-.152-.581-.389-1.134-.509-1.719a4.738,4.738,0,0,1,2.9-5.251,1.9,1.9,0,0,1,.951-.138c1.3.21,1.5,2.233,2.733,2.711.246.094.514.112.764.2a2.393,2.393,0,0,1,1.34,1.576,5.6,5.6,0,0,1,.286,2.318c-.067.746-.281,1.474-.339,2.233a2.733,2.733,0,0,0,.581,2.1,3.573,3.573,0,0,0,.893.625c.228.125.514.25.728.107a.616.616,0,0,0,.205-.295,5.414,5.414,0,0,0,.089-2.527,25.571,25.571,0,0,1,.04-3.912,7.279,7.279,0,0,0-.25-3.126,6.832,6.832,0,0,0-1.143-1.786,7.993,7.993,0,0,0-1.389-1.429,5.765,5.765,0,0,0-3.376-1.009,16.9,16.9,0,0,0-3.546.447,2.722,2.722,0,0,0-2.818,2.335l-.353,1.286a17.09,17.09,0,0,0-.781,4.2c0,1.04.161,3.291,1.34,3.742C124.66,167.253,125.035,164.98,124.781,163.979Z" transform="translate(-43.039 -88.913)"/><path class="l" d="M124.781,163.76c-.152-.581-.389-1.134-.509-1.719a4.738,4.738,0,0,1,2.9-5.251,1.9,1.9,0,0,1,.951-.138c1.3.21,1.5,2.233,2.733,2.711.246.094.514.112.764.2a2.393,2.393,0,0,1,1.34,1.576,5.6,5.6,0,0,1,.286,2.318c-.067.746-.281,1.474-.339,2.233a2.733,2.733,0,0,0,.581,2.1,3.573,3.573,0,0,0,.893.625c.228.125.514.25.728.107a.616.616,0,0,0,.205-.295,5.414,5.414,0,0,0,.089-2.528,25.57,25.57,0,0,1,.04-3.912,7.279,7.279,0,0,0-.25-3.126,6.832,6.832,0,0,0-1.143-1.786,7.994,7.994,0,0,0-1.389-1.429,5.765,5.765,0,0,0-3.376-1.009,16.9,16.9,0,0,0-3.546.447,2.722,2.722,0,0,0-2.818,2.335l-.353,1.286a17.09,17.09,0,0,0-.781,4.2c0,1.04.161,3.291,1.34,3.742C124.66,167.011,125.035,164.779,124.781,163.76Z" transform="translate(-43.039 -88.913)"/><path class="b" d="M99.9,151.985s5.278,11.083,19.264,0" transform="translate(-43.039 -88.913)"/><path class="b" d="M118.9,151.985s5.278,11.083,19.264,0" transform="translate(-43.039 -88.913)"/><path class="b" d="M137.9,151.985s5.278,11.083,19.264,0" transform="translate(-43.039 -88.913)"/><path class="b" d="M156.9,151.985s5.278,11.083,19.264,0" transform="translate(-43.039 -88.913)"/><path class="b" d="M175.9,151.985s5.278,11.083,19.264,0" transform="translate(-43.039 -88.913)"/><path class="b" d="M194.9,151.985s5.278,11.083,19.264,0" transform="translate(-43.039 -88.913)"/><path class="b" d="M213.9,151.985s5.278,11.083,19.264,0" transform="translate(-43.039 -88.913)"/><path class="b" d="M232.9,151.985s5.278,7.917,8.971.527" transform="translate(-43.039 -88.913)"/><path class="a" d="M99.9,151.985s5.278,11.083,19.264,0" transform="translate(-43.039 -88.913)"/><path class="a" d="M118.9,151.985s5.278,11.083,19.264,0" transform="translate(-43.039 -88.913)"/><path class="a" d="M137.9,151.985s5.278,11.083,19.264,0" transform="translate(-43.039 -88.913)"/><path class="a" d="M156.9,151.985s5.278,11.083,19.264,0" transform="translate(-43.039 -88.913)"/><path class="a" d="M175.9,151.985s5.278,11.083,19.264,0" transform="translate(-43.039 -88.913)"/><path class="a" d="M194.9,151.985s5.278,11.083,19.264,0" transform="translate(-43.039 -88.913)"/><path class="a" d="M213.9,151.985s5.278,11.083,19.264,0" transform="translate(-43.039 -88.913)"/><path class="a" d="M232.9,151.985s5.278,7.917,8.971.527" transform="translate(-43.039 -88.913)"/><path class="b" d="M198.565,63.335H38.122L49.733,38H186.428Z"/><path class="a" d="M198.565,63.335H38.122L49.733,38H186.428Z"/><path class="b" d="M80.9,151.985s5.278,11.083,19.264,0" transform="translate(-43.039 -88.913)"/><path class="a" d="M80.9,151.985s5.278,11.083,19.264,0" transform="translate(-43.039 -88.913)"/><rect class="f" width="129.836" height="9.498" transform="translate(53.426 107.669)"/><rect class="f" width="148.305" height="12.669" transform="translate(43.928 98.166)"/><rect class="a" width="129.836" height="1.585" transform="translate(53.426 110.835)"/><path class="n" d="M458.428,219.749s-6.225-1.246-7.882-2.9-9.128-4.564-9.958-2.487-11.2,9.128-4.148,10.373,16.6,1.661,18.67.831S458.428,219.749,458.428,219.749Z" transform="translate(-43.039 -88.913)"/><path class="o" d="M436.436,223.96c7.056,1.246,16.6,1.661,18.67.831,1.581-.634,2.679-3.666,3.126-5.082l.205.045s-1.246,4.979-3.318,5.805-11.61.415-18.67-.831c-2.036-.357-2.617-1.2-2.4-2.273C434.212,223.157,434.922,223.693,436.436,223.96Z" transform="translate(-43.039 -88.913)"/><path class="p" d="M475.692,255.018s5.9-20.037-1.107-34.782a31.648,31.648,0,0,1-2.559-19.854,53.228,53.228,0,0,1,2.809-9.32" transform="translate(-43.039 -88.913)"/><path class="b" d="M470.476,181.748c0,2.456,4.466,9.574,4.466,9.574s4.466-7.123,4.466-9.574a4.466,4.466,0,0,0-8.891,0Z" transform="translate(-43.039 -88.913)"/><path class="b" d="M463.126,195.345c1.34,2.063,8.931,5.622,8.931,5.622s-.138-8.4-1.474-10.454a4.466,4.466,0,1,0-7.466,4.832Z" transform="translate(-43.039 -88.913)"/><path class="b" d="M463.448,218.588c2.193,1.107,10.552.344,10.552.344s-4.358-7.176-6.551-8.284a4.466,4.466,0,1,0-4.019,7.94Z" transform="translate(-43.039 -88.913)"/><path class="b" d="M467.65,236.12c1.974,1.46,10.342,2.121,10.342,2.121s-3.081-7.81-5.055-9.27a4.466,4.466,0,0,0-5.287,7.145Z" transform="translate(-43.039 -88.913)"/><path class="b" d="M481.386,201.445c-1.759,1.71-9.967,3.483-9.967,3.483s2.009-8.15,3.769-9.86a4.466,4.466,0,1,1,6.2,6.377Z" transform="translate(-43.039 -88.913)"/><path class="b" d="M486.052,222.009c-2.193,1.107-10.552.344-10.552.344s4.358-7.176,6.551-8.284a4.466,4.466,0,0,1,4.019,7.94Z" transform="translate(-43.039 -88.913)"/><path class="b" d="M487.834,242.617c-1.974,1.46-10.342,2.121-10.342,2.121s3.081-7.81,5.055-9.27a4.466,4.466,0,0,1,5.287,7.145Z" transform="translate(-43.039 -88.913)"/><path class="n" d="M488.531,253.071s-10.784-2.157-13.66-5.033-15.817-7.908-17.255-4.314-19.412,15.817-7.19,17.974,28.758,2.876,32.348,1.438S488.531,253.071,488.531,253.071Z" transform="translate(-43.039 -88.913)"/><path class="o" d="M450.426,260.341c12.222,2.157,28.758,2.876,32.348,1.438,2.737-1.094,4.64-6.354,5.39-8.806l.362.076s-2.157,8.627-5.752,10.065-20.131.719-32.348-1.438c-3.528-.621-4.537-2.085-4.157-3.934C446.554,258.97,447.8,259.895,450.426,260.341Z" transform="translate(-43.039 -88.913)"/><path class="q" d="M43.383,216.766s-.246,2.411,1.224,3.622c0,0,4.55,5.993,6.814,9.378-.13.92-.219,1.478-.219,1.478h0v.125h.058l-.058.375h.063a71.623,71.623,0,0,0-1.786,11.36v.482s.527,7.708.545,13.682c0,2.907-.147,5.327-.545,6.109-.5.991-.674,5.859-.67,11.383,0,8.011.375,17.626.67,18.787a1.2,1.2,0,0,0,.348.558c-.447,1.786-1.3,4.291-2.55,4.751a2.394,2.394,0,0,0-1.558,2.072v.393a.2.2,0,0,0,.031.129v.045a.352.352,0,0,0,.045.125v.04c0,.045.04.085.063.125v.031a1.509,1.509,0,0,0,.223.29h0l.121.107.049.036.112.076.067.04.116.063.08.036.125.049.089.031.138.04.1.027.156.031h.688c3.179,0,4.89-.723,5.868-2.17l1.956-.482v-.054h0v-.5h0l.045-.232v-.013l.022-.129h0c.022-.138.049-.286.076-.447v-.027c.027-.161.049-.33.076-.509h0c.027-.179.049-.362.071-.554V297.5c0-.188.04-.38.058-.576v-.246a2.65,2.65,0,0,1,.027-.375v-.612h.192l1.71-27.03,6.109-24.114,2.929,20.242v3.729c0,5.765.112,16.389,1,17.786a6.54,6.54,0,0,1,.54,3.037,45.957,45.957,0,0,1-.54,5.895h.071c-.045.308-.071.487-.071.487h.223c-.161,1.581-.205,3.3-.219,4.113h0v.482s4.157.482,4.89.482c4.1,0,9.288,1.929,11,.723l.147-.116.031-.027.089-.085.022-.027.067-.085v-.022a.678.678,0,0,0,.049-.089h0a.535.535,0,0,0,.027-.094h0a.482.482,0,0,0,0-.1h0a.509.509,0,0,0,0-.1h0c-.237-.853-2.657-1.6-4.354-2.344-1.465-.643-2.711-3.1-3.38-4.675a1.1,1.1,0,0,0,.246-.965,1.139,1.139,0,0,0-.04-.634c-.893-2.679-1.179-25.275-1.219-28.754l2.2-15.656a10.182,10.182,0,0,0,.25-2.854,116.285,116.285,0,0,0-1.139-13.066h.643l-.08-.482h.08l-.978-5.805v-7.569L77.83,204.7l1.465.965c.112,0,.322-.161.594-.447,3.126,1.371,7.145,3.126,9.427,4.046,4.157,1.688,4.4,0,4.4,0l8.065-15.687s14.178-5.805,9.534-8.208-11.244,2.411-12.222,4.827-6.6,10.137-7.824,11.584-1.956.482-3.179-.723a34.608,34.608,0,0,0-3.264-2.536l.089-.121a3.653,3.653,0,0,1-1.286-.969c-1.938-2.184-6.109-6.573-8.485-6.752-2.961-.223-6.765-3.166-7.274-3.572a11.525,11.525,0,0,1,.027-2.135h.022a.769.769,0,0,1,.027-.246,7.507,7.507,0,0,0,5.975-7.315,4.742,4.742,0,0,0-.022-.563.223.223,0,0,0,.134,0c.313-.089.482-3.054.482-3.461a2.554,2.554,0,0,1,.183-.8c.1-.223.272-.415.371-.643a1.3,1.3,0,0,0,.085-.621,2.974,2.974,0,0,0-.348-1.371,23.882,23.882,0,0,0-2.617-4.832,1.6,1.6,0,0,0-.594-.54,2.175,2.175,0,0,0-.853-.094,12.623,12.623,0,0,1-3.863-1.067,4.438,4.438,0,0,0-3.876.138c-1.1.759-1.514,2.264-2.679,2.867-.322.161-.679.246-1,.42A3.836,3.836,0,0,0,58.5,167.9a8.038,8.038,0,0,0-1.567,2.577,6.756,6.756,0,0,0-.214,2.005v.674c0,1.34.143,2.876,1.237,3.666a2.572,2.572,0,0,1,.634.656,1.992,1.992,0,0,1,.295,1.085c.054.746.348,1.491.4,2.233a1.509,1.509,0,0,0,.214.808.536.536,0,0,0,.746.143l.045-.188c.08.116.161.232.246.344a13.534,13.534,0,0,1-1.429,4.466h-.161a5.6,5.6,0,0,0-3.238,1.063c-2.746,1.951-8.4,3.523-8.4,3.523a2.586,2.586,0,0,0-.773,1.518,46.151,46.151,0,0,0-2.519,7.413h0a17.738,17.738,0,0,0-.719,3.881v.1h.036l-.04.214.866.21C43.485,207.907,42.521,214.382,43.383,216.766Zm5.359-1.206a50.41,50.41,0,0,0,1.666-4.876,12.141,12.141,0,0,0,1.514,3.43c.447.5.594,1.786.607,3.519a57.625,57.625,0,0,1-.357,5.778,52.376,52.376,0,0,1-3.412-7.85Z" transform="translate(-43.039 -88.913)"/><path class="r" d="M76.419,291.39s1.666,5,3.8,5.948,5.47,1.9,3.8,3.09-6.7-.714-10.717-.714c-.714,0-4.756-.478-4.756-.478s0-6.421.951-7.591S76.419,291.39,76.419,291.39Z" transform="translate(-43.039 -88.913)"/><path class="r" d="M50.97,291.39s-.951,5.707-2.853,6.421-2.38,3.8.714,3.8,4.756-.714,5.707-2.139l1.9-.478s1.188-5.47,0-6.9Z" transform="translate(-43.039 -88.913)"/><path class="r" d="M76.419,291.39s1.666,5,3.8,5.948,5.47,1.9,3.8,3.09-6.7-.714-10.717-.714c-.714,0-4.756-.478-4.756-.478s0-6.421.951-7.591S76.419,291.39,76.419,291.39Z" transform="translate(-43.039 -88.913)"/><path class="r" d="M50.97,291.39s-.951,5.707-2.853,6.421-2.38,3.8.714,3.8,4.756-.714,5.707-2.139l1.9-.478s1.188-5.47,0-6.9Z" transform="translate(-43.039 -88.913)"/><path class="s" d="M82.367,197.2a68.383,68.383,0,0,1,5.707,4.282c1.188,1.192,1.9,2.139,3.09.714s6.658-9.038,7.591-11.418,7.373-7.145,11.892-4.756-9.275,8.087-9.275,8.087l-7.828,15.46s-.237,1.666-4.282,0S75.7,203.629,75.7,203.629Z" transform="translate(-43.039 -88.913)"/><path class="a" d="M76.9,229.788s2.139,14.736,1.188,17.6l-2.139,15.46s.237,25.927,1.188,28.78-8.565,3.095-8.565,3.095,1.188-7.373,0-9.275-.951-21.171-.951-21.171L64.75,244.3,58.8,268.08l-1.643,26.646s-6.421-.237-6.9-2.139-1.188-26.878,0-29.258,0-19.979,0-19.979.951-13.557,3.8-15.223S76.9,229.788,76.9,229.788Z" transform="translate(-43.039 -88.913)"/><path class="t" d="M76.9,229.31s2.139,14.736,1.188,17.6l-2.139,15.46s.237,25.927,1.188,28.78-8.565,3.09-8.565,3.09,1.188-7.373,0-9.275-.951-21.171-.951-21.171L64.75,243.819,58.8,267.6l-1.643,26.641s-6.421-.237-6.9-2.139-1.188-26.878,0-29.258,0-19.979,0-19.979.951-13.557,3.8-15.223S76.9,229.31,76.9,229.31Z" transform="translate(-43.039 -88.913)"/><path class="s" d="M61.432,178.649s-.478,11.418-4.519,9.275l3.572,10.717,8.087-.478,4.756-6.421L69.756,189.6s-2.617.951-.714-7.85Z" transform="translate(-43.039 -88.913)"/><path class="a" d="M68.323,188.16s4.041,3.331,7.145,3.572c2.318.179,6.377,4.506,8.261,6.658a3.573,3.573,0,0,0,1.25.956S80.224,206,79.509,206l-1.429-.951-1.188,13.084v7.85l.951,5.707s-14.986.237-16.411-.951-9.516.951-9.516.951,2.38-15.46.714-17.362-4.519-15.223-4.519-15.223-1.9-5.47,0-7.145c0,0,5.5-1.545,8.172-3.47a5.4,5.4,0,0,1,3.148-1.049h.174a4.676,4.676,0,0,0,3.729,4.282C66.9,192.438,69.162,191.125,68.323,188.16Z" transform="translate(-43.039 -88.913)"/><path class="u" d="M68.323,187.687s4.041,3.331,7.145,3.572c2.318.179,6.377,4.506,8.261,6.658a3.573,3.573,0,0,0,1.25.956s-4.756,6.658-5.47,6.658l-1.429-.951-1.188,13.084v7.846l.951,5.707s-14.986.237-16.411-.951-9.516.951-9.516.951,2.38-15.46.714-17.362-4.519-15.223-4.519-15.223-1.9-5.47,0-7.145c0,0,5.5-1.545,8.172-3.47a5.4,5.4,0,0,1,3.148-1.049h.174a4.676,4.676,0,0,0,3.729,4.282C66.9,191.96,69.162,190.679,68.323,187.687Z" transform="translate(-43.039 -88.913)"/><path class="u" d="M52.158,205.286s-7.145-.951-7.85-.951,2.38-11.655,4.041-12.843,3.8,4.282,3.8,4.282Z" transform="translate(-43.039 -88.913)"/><g class="v"><path class="w" d="M69.18,188.446c.29,2.126-1.224,3.22-3.7,3.1,2.268-.125,3.5-1.429,2.849-3.751C68.323,187.8,68.653,188.066,69.18,188.446Z" transform="translate(-43.039 -88.913)"/><path class="w" d="M78.8,204.692l1.085.723a.781.781,0,0,1-.371.228l-.755-.5Z" transform="translate(-43.039 -88.913)"/><path class="w" d="M48.116,198.748s3.572,13.321,5.234,15.223c1.558,1.786-.424,15.424-.683,17.179l-.741.188s2.38-15.46.714-17.362S48.116,198.748,48.116,198.748Z" transform="translate(-43.039 -88.913)"/><path class="w" d="M62.147,230.382c1,.831,8.565.965,13.071.969-4.367,0-12.736-.1-13.781-.969a2.451,2.451,0,0,0-1.389-.353A3.334,3.334,0,0,1,62.147,230.382Z" transform="translate(-43.039 -88.913)"/></g><path class="s" d="M45.5,202.2s-2.38,11.418-1.188,14.736c0,0-.237,2.38,1.188,3.572,0,0,7.85,10.467,7.85,11.418s2.38,5.47,6.421,1.666c0,0,1.9-2.617-2.38-4.756s-7.85-13.084-7.85-13.084,3.572-8.8,2.139-11.655S45.5,202.2,45.5,202.2Z" transform="translate(-43.039 -88.913)"/><path class="a" d="M9.949,117.68l-8.8-2.139.719-3.925,3.8-.594,5,1.661Z"/><path class="u" d="M9.949,117.444l-8.8-2.143.719-3.925,3.8-.594,5,1.666Z"/><path class="a" d="M61.432,178.885l7.591,3.09a33.411,33.411,0,0,0-.607,3.644,7.377,7.377,0,0,1-7.44-2.8A34.559,34.559,0,0,0,61.432,178.885Z" transform="translate(-43.039 -88.913)"/><circle class="s" cx="7.373" cy="7.373" r="7.373" transform="translate(16.491 81.885)"/><path class="a" d="M74.856,174.214a2.545,2.545,0,0,1,.174-.79c.1-.219.268-.411.357-.634a2.206,2.206,0,0,0-.255-1.724,23.632,23.632,0,0,0-2.55-4.76,1.567,1.567,0,0,0-.576-.531,2.1,2.1,0,0,0-.831-.094,12.168,12.168,0,0,1-3.756-1.049,4.3,4.3,0,0,0-3.773.134c-1.094.746-1.469,2.233-2.626,2.827-.313.161-.661.241-.969.415a3.756,3.756,0,0,0-1.045,1.023,5.948,5.948,0,0,0-1.728,4.939c0,1.34.138,2.831,1.2,3.613a2.523,2.523,0,0,1,.616.648,1.983,1.983,0,0,1,.286,1.067c.054.737.339,1.469.393,2.206a1.5,1.5,0,0,0,.21.8.518.518,0,0,0,.728.143l.746-3.068a4.184,4.184,0,0,1,.692-1.706c.554-.679,1.541-1.018,1.835-1.849.21-.594.027-1.362.491-1.786a1.514,1.514,0,0,1,.683-.295,16.179,16.179,0,0,1,6.524-.2,1.867,1.867,0,0,1,.665.21,2,2,0,0,1,.706,1.107c.156.447.732,2.943,1.34,2.773C74.691,177.532,74.856,174.6,74.856,174.214Z" transform="translate(-43.039 -88.913)"/><path class="x" d="M74.856,173.973a2.546,2.546,0,0,1,.174-.79c.1-.219.268-.411.357-.634a2.206,2.206,0,0,0-.255-1.724,23.632,23.632,0,0,0-2.55-4.76,1.567,1.567,0,0,0-.576-.531,2.094,2.094,0,0,0-.831-.094,12.168,12.168,0,0,1-3.756-1.049,4.3,4.3,0,0,0-3.773.134c-1.094.746-1.469,2.233-2.626,2.827-.313.161-.661.241-.969.415a3.756,3.756,0,0,0-1.045,1.023,5.948,5.948,0,0,0-1.728,4.921c0,1.34.138,2.831,1.2,3.613a2.523,2.523,0,0,1,.616.648,1.983,1.983,0,0,1,.295,1.1c.054.737.339,1.469.393,2.206a1.5,1.5,0,0,0,.21.8.518.518,0,0,0,.737.121l.746-3.068a4.184,4.184,0,0,1,.692-1.706c.554-.679,1.541-1.018,1.835-1.849.21-.594.027-1.362.491-1.786a1.514,1.514,0,0,1,.683-.295,16.179,16.179,0,0,1,6.524-.2,1.867,1.867,0,0,1,.665.21,2,2,0,0,1,.706,1.107c.156.447.732,2.943,1.34,2.773C74.691,177.282,74.856,174.375,74.856,173.973Z" transform="translate(-43.039 -88.913)"/><ellipse class="s" cx="0.714" cy="1.666" rx="0.714" ry="1.666" transform="translate(18.273 87.234)"/><path class="a" d="M73.329,299.241c3.988,0,9.038,1.9,10.717.714a1.192,1.192,0,0,0,.388-.411c.138.281.045.576-.388.893-1.666,1.188-6.7-.714-10.717-.714-.714,0-4.756-.478-4.756-.478v-.473C68.667,298.776,72.623,299.241,73.329,299.241Z" transform="translate(-43.039 -88.913)"/><path class="a" d="M48.826,301.143c3.09,0,4.756-.714,5.707-2.139l1.9-.478a25.783,25.783,0,0,0,.527-4.238A24.324,24.324,0,0,1,56.436,299l-1.9.478c-.951,1.429-2.617,2.139-5.707,2.139-1.724,0-2.34-.965-2.233-1.938C46.723,300.469,47.388,301.143,48.826,301.143Z" transform="translate(-43.039 -88.913)"/><rect class="t" width="8.565" height="3.331" transform="matrix(-0.945, 0.327, -0.327, -0.945, 19.065, 144.962)"/><rect class="a" width="8.565" height="3.331" transform="matrix(-0.945, 0.327, -0.327, -0.945, 19.065, 144.962)"/><g transform="translate(-139.997 -647.201)"><g class="aa" transform="matrix(1, 0, 0, 1, 140, 647.2)"><circle class="m" cx="3.5" cy="3.5" r="3.5" transform="translate(86 82.8)"/></g><g class="z" transform="matrix(1, 0, 0, 1, 140, 647.2)"><circle class="m" cx="3.5" cy="3.5" r="3.5" transform="translate(78 82.8)"/></g><circle class="y" cx="1" cy="1" r="1" transform="translate(220 733)"/><circle class="y" cx="1" cy="1" r="1" transform="translate(229 733)"/></g></g></svg>